<svg width="500" height="424" viewBox="0 0 500 424" fill="none" xmlns="http://www.w3.org/2000/svg">
<g filter="url(#filter0_d_217_820)">
<rect x="50" y="37" width="413" height="318" rx="20" fill="url(#paint0_linear_217_820)"/>
</g>
<path d="M248.88 175.098L94.7798 196.619L110.107 300.498L264.207 278.976L248.88 175.098Z" fill="white"/>
<path d="M368.399 94.0321L214.953 180.226L291.004 308.377L444.45 222.183L368.399 94.0321Z" fill="#9BA859"/>
<mask id="mask0_217_820" style="mask-type:luminance" maskUnits="userSpaceOnUse" x="0" y="37" width="473" height="382">
<path d="M379.972 37.1473L0 172.14L92.5019 418.59L472.474 283.597L379.972 37.1473Z" fill="white"/>
</mask>
<g mask="url(#mask0_217_820)">
<path d="M399.67 176.264L286.088 216.616L327.247 326.274L440.829 285.922L399.67 176.264Z" fill="#FCD4BB"/>
</g>
<mask id="mask1_217_820" style="mask-type:luminance" maskUnits="userSpaceOnUse" x="14" y="0" width="486" height="424">
<path d="M499.999 196.782L149.678 0L14.8358 227.218L365.156 424L499.999 196.782Z" fill="white"/>
</mask>
<g mask="url(#mask1_217_820)">
<path d="M339.647 198.204L149.54 91.4167L73.4889 219.568L263.596 326.355L339.647 198.204Z" fill="#FEC868"/>
</g>
<mask id="mask2_217_820" style="mask-type:luminance" maskUnits="userSpaceOnUse" x="49" y="55" width="406" height="264">
<path d="M454.476 55.6616H49.9487V318.038H454.476V55.6616Z" fill="white"/>
</mask>
<g mask="url(#mask2_217_820)">
<path d="M365.355 345.603L139.398 345.867C134.274 345.873 130.115 341.836 130.108 336.851L129.801 87.5119C129.795 82.5268 133.944 78.4804 139.068 78.4746L365.025 78.2107C370.149 78.2049 374.308 82.2413 374.314 87.2265L374.622 336.566C374.628 341.551 370.479 345.597 365.355 345.603Z" fill="#32464F"/>
<path d="M140.271 90.1519L140.572 334.186L363.604 333.926L363.304 89.8916L140.271 90.1519ZM358.929 129.186L309.648 129.244L309.604 94.257L358.886 94.1993L358.929 129.186ZM249.73 214.449L249.774 250.562L198.597 250.622L198.552 214.509L249.73 214.449ZM198.547 210.206L198.502 174.092L249.679 174.033L249.724 210.146L198.547 210.206ZM254.152 214.444L305.329 214.384L305.374 250.498L254.197 250.558L254.152 214.444ZM254.147 210.141L254.102 174.028L305.28 173.968L305.324 210.081L254.147 210.141ZM254.097 169.725L254.053 133.611L305.23 133.552L305.274 169.665L254.097 169.725ZM254.047 129.309L254.004 94.3221L305.181 94.2623L305.224 129.249L254.047 129.309ZM249.624 129.314L198.447 129.374L198.404 94.3872L249.581 94.3273L249.624 129.314ZM249.63 133.617L249.675 169.73L198.498 169.79L198.453 133.676L249.63 133.617ZM194.074 169.795L144.792 169.853L144.748 133.739L194.029 133.682L194.074 169.795ZM194.08 174.098L194.124 210.212L144.842 210.269L144.797 174.156L194.08 174.098ZM194.13 214.514L194.174 250.627L144.893 250.685L144.848 214.572L194.13 214.514ZM194.179 254.93L194.224 291.044L144.942 291.102L144.898 254.988L194.179 254.93ZM198.602 254.925L249.78 254.865L249.824 290.979L198.647 291.039L198.602 254.925ZM254.202 254.86L305.379 254.8L305.424 290.914L254.247 290.974L254.202 254.86ZM309.802 254.796L359.083 254.738L359.128 290.851L309.847 290.909L309.802 254.796ZM309.797 250.493L309.752 214.379L359.034 214.321L359.079 250.435L309.797 250.493ZM309.747 210.076L309.703 173.963L358.984 173.905L359.028 210.018L309.747 210.076ZM309.697 169.66L309.653 133.547L358.935 133.489L358.979 169.603L309.697 169.66ZM193.981 94.3924L194.025 129.379L144.743 129.437L144.7 94.4501L193.981 94.3924ZM144.99 329.878L144.947 295.404L194.229 295.346L194.271 329.501L198.694 329.496L198.652 295.341L249.829 295.281L249.871 329.436L254.294 329.431L254.252 295.276L305.429 295.216L305.471 329.371L309.894 329.366L309.851 295.211L359.133 295.153L359.176 329.627L144.99 329.878Z" fill="#384D54"/>
</g>
<mask id="mask3_217_820" style="mask-type:luminance" maskUnits="userSpaceOnUse" x="49" y="55" width="406" height="264">
<path d="M454.476 55.6616H49.9487V318.038H454.476V55.6616Z" fill="white"/>
</mask>
<g mask="url(#mask3_217_820)">
<path d="M372.491 251.382L362.583 256.869L354.463 241.92L363.427 236.956L372.491 251.382Z" fill="#446E7C"/>
<path d="M409.108 295.825C400.242 302.557 382.217 310.715 382.217 310.715C382.091 310.5 381.962 310.279 381.836 310.054C377.756 302.925 373.174 292.482 369.154 282.536C366.324 275.535 363.768 268.78 361.864 263.603C360.629 260.249 359.667 257.558 359.075 255.889C358.689 254.802 359.156 253.602 360.181 253.035L370.395 247.379C371.311 246.872 372.452 246.991 373.24 247.666C374.985 249.165 376.986 251.25 379.127 253.719C383.159 258.369 387.694 264.377 391.997 270.392C399.728 281.204 406.695 292.036 408.597 295.021C408.931 295.543 409.108 295.825 409.108 295.825Z" fill="#FBA74D"/>
<path d="M380.161 310.941C380.161 310.941 404.49 298.077 409.513 294.385L411.259 297.368C411.259 297.368 396.361 307.136 382.041 314.154L380.161 310.941Z" fill="#FEC868"/>
<path d="M391.997 270.392C387.655 273.397 379.563 278.461 369.154 282.536C366.324 275.535 363.768 268.78 361.864 263.602C366.257 260.681 372.473 256.856 379.126 253.719C383.158 258.368 387.694 264.376 391.997 270.392Z" fill="#FEC868"/>
<g opacity="0.34">
<path d="M396.718 283.565C395.741 282.122 394.752 280.687 393.749 279.26C391.794 276.479 389.789 273.729 387.738 271.014C385.722 268.344 383.63 265.732 381.496 263.151C379.303 260.498 377.158 257.61 374.474 255.409C373.812 254.865 372.737 255.542 373.211 256.347C374.91 259.233 377.275 261.781 379.332 264.433C381.414 267.117 383.446 269.839 385.466 272.569C387.436 275.231 389.36 277.926 391.238 280.651C392.227 282.085 393.203 283.528 394.165 284.979C395.09 286.372 395.926 287.888 397.138 289.066C397.967 289.872 399.68 289.078 399.249 287.897C398.673 286.317 397.66 284.957 396.718 283.565Z" fill="#F2F2F2"/>
<path d="M401.904 292.614C401.741 292.406 401.509 292.226 401.239 292.166C401.024 292.118 400.806 292.116 400.591 292.16C400.313 292.216 399.919 292.476 399.804 292.739C399.784 292.784 399.765 292.829 399.745 292.874C399.632 293.066 399.574 293.271 399.57 293.492C399.569 293.719 399.625 293.932 399.74 294.131C399.924 294.415 400.186 294.634 400.524 294.724C400.845 294.809 401.221 294.764 401.51 294.604C401.919 294.377 402.144 293.97 402.166 293.521C402.168 293.471 402.171 293.422 402.173 293.372C402.186 293.097 402.07 292.827 401.904 292.614Z" fill="#F2F2F2"/>
</g>
<path d="M315.157 284.458L309.082 293.843L294.672 284.39L300.168 275.899L315.157 284.458Z" fill="#446E7C"/>
<path d="M368.996 306.833C364.444 316.839 352.508 332.306 352.508 332.306C352.292 332.174 352.072 332.039 351.852 331.898C344.797 327.485 335.692 320.381 327.324 313.457C321.433 308.584 315.904 303.801 311.714 300.111C308.999 297.72 306.845 295.789 305.514 294.59C304.647 293.809 304.476 292.537 305.104 291.566L311.367 281.89C311.928 281.023 312.992 280.604 314.014 280.838C316.279 281.358 319.055 282.278 322.14 283.473C327.949 285.721 334.863 288.937 341.574 292.265C353.633 298.248 365.029 304.6 368.155 306.359C368.703 306.665 368.996 306.833 368.996 306.833Z" fill="#83C3C4"/>
<path d="M350.806 333.448C350.806 333.448 366.018 310.937 368.656 305.375L371.641 307.205C371.641 307.205 363.244 322.656 354.022 335.417L350.806 333.448Z" fill="#446E7C"/>
<path d="M341.574 292.263C339.204 296.906 334.525 305.086 327.324 313.456C321.433 308.584 315.903 303.8 311.713 300.11C314.17 295.518 317.795 289.292 322.14 283.472C327.949 285.72 334.863 288.935 341.574 292.263Z" fill="#446E7C"/>
<g opacity="0.34">
<path d="M352.127 301.709C350.566 300.885 348.997 300.075 347.422 299.277C344.349 297.722 341.248 296.218 338.123 294.765C335.05 293.338 331.939 291.995 328.805 290.698C325.585 289.366 322.293 287.805 318.86 287.096C318.012 286.92 317.393 288.01 318.201 288.502C321.099 290.267 324.419 291.428 327.519 292.822C330.657 294.233 333.769 295.699 336.873 297.179C339.901 298.622 342.905 300.115 345.882 301.655C347.45 302.466 349.01 303.29 350.562 304.127C352.052 304.931 353.525 305.884 355.166 306.366C356.288 306.696 357.413 305.21 356.461 304.366C355.186 303.239 353.633 302.504 352.127 301.709Z" fill="#F2F2F2"/>
<path d="M361.088 307.307C360.844 307.199 360.552 307.146 360.285 307.217C360.073 307.273 359.879 307.372 359.71 307.509C359.492 307.686 359.272 308.096 359.297 308.381C359.301 308.43 359.306 308.479 359.31 308.527C359.304 308.748 359.352 308.956 359.456 309.152C359.565 309.353 359.718 309.516 359.916 309.637C360.215 309.803 360.553 309.876 360.895 309.8C361.22 309.728 361.528 309.516 361.706 309.242C361.957 308.854 361.957 308.392 361.759 307.986C361.737 307.941 361.715 307.896 361.693 307.851C361.572 307.603 361.338 307.419 361.088 307.307Z" fill="#F2F2F2"/>
</g>
<path d="M451.419 144.517L422.084 182.793C419.322 186.397 414.079 187.14 410.375 184.452L320.93 119.566C317.226 116.879 316.462 111.779 319.224 108.175L348.56 69.8989C351.322 66.2949 356.564 65.5519 360.268 68.2391L449.713 133.126C453.417 135.813 454.181 140.913 451.419 144.517Z" fill="#F2F2F2"/>
<path d="M349.988 119.569C354.327 114.118 353.304 106.277 347.701 102.055C342.099 97.8334 334.04 98.8293 329.7 104.28C325.361 109.73 326.384 117.571 331.987 121.793C337.589 126.015 345.648 125.019 349.988 119.569Z" fill="#F48A68"/>
<path d="M368.173 95.8176C372.593 90.4285 371.685 82.5741 366.146 78.2743C360.607 73.9744 352.533 74.8575 348.114 80.2466C343.694 85.6357 344.602 93.4901 350.141 97.7899C355.68 102.09 363.753 101.207 368.173 95.8176Z" fill="#FEC868"/>
<path d="M370.065 140.531C376.328 137.305 378.717 129.751 375.401 123.658C372.086 117.565 364.321 115.24 358.058 118.466C351.796 121.692 349.407 129.246 352.722 135.339C356.038 141.432 363.802 143.756 370.065 140.531Z" fill="#E46959"/>
<path d="M383.546 118.044C390.603 117.417 395.801 111.343 395.157 104.478C394.513 97.6119 388.27 92.5541 381.213 93.1807C374.156 93.8074 368.957 99.8813 369.601 106.747C370.245 113.613 376.489 118.671 383.546 118.044Z" fill="#FBA74D"/>
<path d="M400.601 150.498C402.543 143.867 398.592 136.961 391.777 135.072C384.963 133.184 377.864 137.027 375.923 143.657C373.981 150.287 377.932 157.193 384.746 159.082C391.561 160.971 398.659 157.128 400.601 150.498Z" fill="#83C3C4"/>
<path d="M417.661 129.49C421.235 123.537 419.172 115.892 413.053 112.416C406.934 108.939 399.077 110.947 395.503 116.9C391.93 122.853 393.993 130.497 400.112 133.974C406.231 137.45 414.088 135.443 417.661 129.49Z" fill="#32464F"/>
<path d="M423.574 170.949C427.147 164.996 425.084 157.352 418.965 153.875C412.846 150.399 404.989 152.406 401.415 158.359C397.842 164.312 399.905 171.956 406.024 175.433C412.143 178.91 420 176.902 423.574 170.949Z" fill="#516752"/>
<path d="M432.693 153.102C439.704 152.099 444.552 145.756 443.521 138.935C442.489 132.114 435.97 127.398 428.959 128.401C421.948 129.404 417.1 135.747 418.131 142.568C419.163 149.389 425.682 154.105 432.693 153.102Z" fill="#FCD4BB"/>
<path d="M90.355 263.016L69.812 277.994L86.7668 300.005L107.31 285.026L90.355 263.016Z" fill="#FCD4BB"/>
<path d="M91.9756 264.608L70.9116 279.965C69.1953 281.216 66.7385 280.873 65.4526 279.204C64.1662 277.534 64.5184 275.144 66.2347 273.893L87.2987 258.536C89.015 257.284 91.4718 257.627 92.7577 259.297C94.0441 260.966 93.6919 263.356 91.9756 264.608Z" fill="#F48A68"/>
<path d="M111.464 289.907L90.3999 305.264C88.6836 306.515 86.2268 306.173 84.9409 304.503C83.6545 302.834 84.0067 300.443 85.723 299.192L106.787 283.836C108.503 282.584 110.96 282.927 112.246 284.596C113.532 286.266 113.18 288.656 111.464 289.907Z" fill="#F48A68"/>
<path d="M94.8121 268.64C91.3175 271.223 87.8709 273.862 84.3446 276.406C80.8473 278.929 77.0205 281.206 73.761 284.015C73.4638 284.271 73.7184 284.859 74.1284 284.656C77.9428 282.771 81.4201 280.053 84.8688 277.608C88.4966 275.036 92.1072 272.403 95.5564 269.607C96.1664 269.112 95.4529 268.166 94.8121 268.64Z" fill="#F48A68"/>
<path d="M96.8381 270.927C93.1688 273.489 89.7751 276.416 86.0675 278.944C82.3809 281.458 78.3431 283.555 74.7569 286.19C74.3993 286.453 74.7197 287.028 75.1425 286.863C79.3216 285.234 83.2169 282.507 86.8846 280.005C90.5771 277.487 94.4654 274.852 97.6321 271.712C98.0954 271.253 97.343 270.575 96.8381 270.927Z" fill="#F48A68"/>
<path d="M98.8154 273.474C95.5166 276.456 92.0139 279.205 88.3311 281.725C86.5328 282.956 84.6844 284.114 82.8069 285.226C80.8673 286.375 78.7071 287.308 76.9126 288.663C76.5335 288.95 76.8787 289.456 77.3021 289.343C79.3501 288.796 81.2551 287.63 83.0868 286.603C85.083 285.483 87.0204 284.269 88.9093 282.986C92.6924 280.418 96.2113 277.508 99.4998 274.363C100.012 273.875 99.3601 272.982 98.8154 273.474Z" fill="#F48A68"/>
<path d="M100.772 275.659C97.3258 278.483 94.3307 281.788 90.8237 284.567C87.3124 287.349 83.5838 289.846 79.6712 292.063C78.8519 292.527 79.744 293.677 80.5574 293.213C84.5503 290.939 88.3685 288.379 91.9289 285.502C95.273 282.799 98.9358 279.785 101.35 276.229C101.591 275.872 101.152 275.346 100.772 275.659Z" fill="#F48A68"/>
<path d="M102.449 279.138C99.5719 282.492 96.3718 285.551 92.7904 288.192C91.1 289.439 89.333 290.578 87.5197 291.649C85.6777 292.736 83.4884 293.56 81.838 294.919C81.6362 295.084 81.7495 295.441 82.0364 295.403C84.0904 295.139 86.037 293.986 87.8196 293.014C89.846 291.908 91.7829 290.652 93.6361 289.29C97.313 286.587 100.629 283.437 103.48 279.914C103.999 279.271 102.986 278.512 102.449 279.138Z" fill="#F48A68"/>
<path d="M122.231 226.151L101.432 211.512L84.8613 233.797L105.661 248.436L122.231 226.151Z" fill="#9BA859"/>
<path d="M121.167 228.135L99.8396 213.127C98.1017 211.903 97.7085 209.519 98.9652 207.829C100.222 206.138 102.672 205.756 104.41 206.979L125.737 221.987C127.475 223.21 127.868 225.594 126.612 227.285C125.355 228.976 122.905 229.359 121.167 228.135Z" fill="#516752"/>
<path d="M102.12 253.752L80.7927 238.743C79.0548 237.52 78.6616 235.136 79.9184 233.446C81.1751 231.755 83.6255 231.372 85.3633 232.595L106.691 247.604C108.428 248.827 108.822 251.211 107.565 252.901C106.308 254.593 103.858 254.975 102.12 253.752Z" fill="#516752"/>
<path d="M118.051 231.967C114.477 229.487 110.864 227.069 107.32 224.549C103.805 222.049 100.434 219.169 96.7101 216.975C96.3703 216.775 95.8692 217.186 96.1896 217.507C99.1723 220.491 102.872 222.915 106.296 225.393C109.898 227.999 113.554 230.572 117.323 232.946C117.989 233.365 118.706 232.421 118.051 231.967Z" fill="#516752"/>
<path d="M116.407 234.528C112.804 231.879 108.923 229.596 105.34 226.902C101.778 224.224 98.5212 221.095 94.8702 218.546C94.5062 218.292 94.0364 218.76 94.3239 219.104C97.1631 222.503 100.997 225.312 104.542 227.977C108.11 230.659 111.851 233.489 115.873 235.499C116.461 235.792 116.903 234.892 116.407 234.528Z" fill="#516752"/>
<path d="M114.494 237.121C110.588 234.941 106.85 232.503 103.283 229.83C101.541 228.525 99.8556 227.152 98.2062 225.738C96.5024 224.277 94.9452 222.547 93.0822 221.282C92.6885 221.015 92.2937 221.487 92.5305 221.847C93.6755 223.587 95.3859 225.01 96.9382 226.407C98.6297 227.929 100.397 229.368 102.217 230.743C105.861 233.495 109.762 235.899 113.825 238.022C114.457 238.352 115.139 237.481 114.494 237.121Z" fill="#516752"/>
<path d="M112.933 239.588C109.137 237.225 105.005 235.424 101.236 232.991C97.4623 230.555 93.9052 227.832 90.5665 224.855C89.8674 224.232 89.0044 225.402 89.7002 226.02C93.1182 229.054 96.7644 231.841 100.646 234.295C104.292 236.6 108.337 239.107 112.544 240.294C112.967 240.412 113.352 239.848 112.933 239.588Z" fill="#516752"/>
<path d="M110.015 242.179C105.869 240.502 101.916 238.437 98.2602 235.894C96.5347 234.694 94.8918 233.391 93.3028 232.024C91.689 230.635 90.23 228.846 88.4064 227.716C88.1837 227.578 87.8676 227.788 87.9895 228.045C88.859 229.874 90.5688 231.341 92.052 232.708C93.7386 234.262 95.5466 235.688 97.4344 237.005C101.18 239.619 105.256 241.764 109.56 243.366C110.344 243.659 110.789 242.492 110.015 242.179Z" fill="#516752"/>
<path d="M67.2956 186.739C66.0264 174.856 80.0473 165.131 92.9782 168.844C105.54 172.45 107.945 185.903 99.072 194.829C87.7808 206.187 68.7243 200.103 67.2956 186.739Z" fill="#446E7C"/>
<path d="M73.8072 188.01C72.1702 186.529 70.2522 185.293 68.4679 183.987C66.5715 182.6 64.7058 181.016 62.6686 179.833C62.3531 179.65 61.9507 180.073 62.2415 180.334C63.8811 181.806 65.8347 183.023 67.6249 184.317C69.5348 185.697 71.4091 187.24 73.4582 188.419C73.7165 188.568 74.0445 188.225 73.8072 188.01Z" fill="white"/>
<path d="M63.3871 179.574C63.2738 179.303 63.0985 179.038 62.8132 178.907C62.5198 178.774 62.2398 178.761 61.9232 178.831C61.9119 178.833 61.9006 178.836 61.8892 178.838C61.7916 178.883 61.694 178.927 61.5969 178.971L61.3585 179.168C61.1767 179.347 61.085 179.604 61.0608 179.847C61.0171 180.296 61.256 180.796 61.6929 180.995C62.078 181.171 62.5397 181.17 62.9038 180.941C63.1249 180.802 63.2814 180.595 63.3714 180.358C63.4577 180.13 63.4966 179.837 63.3995 179.605C63.3957 179.595 63.3914 179.584 63.3871 179.574Z" fill="#FEC868"/>
<path d="M74.8742 176.628C74.0905 174.285 73.4821 171.867 72.6283 169.551C72.4907 169.178 71.9546 169.357 72.0344 169.733C72.5582 172.213 73.4783 174.681 74.3111 177.077C75.0916 179.323 75.8208 181.691 76.9788 183.785C77.0684 183.947 77.3041 183.816 77.2642 183.655C76.6703 181.27 75.6547 178.961 74.8742 176.628Z" fill="white"/>
<path d="M73.2884 168.925C73.1752 168.654 72.9999 168.389 72.7145 168.259C72.4211 168.125 72.1412 168.112 71.8246 168.182C71.8133 168.185 71.8019 168.187 71.7906 168.189C71.693 168.234 71.5954 168.278 71.4983 168.323L71.2599 168.52C71.0781 168.698 70.9864 168.955 70.9621 169.198C70.9184 169.647 71.1574 170.148 71.5948 170.347C71.9799 170.522 72.4416 170.521 72.8057 170.292C73.0268 170.154 73.1833 169.946 73.2733 169.709C73.3596 169.481 73.3985 169.188 73.3014 168.956C73.2976 168.946 73.2933 168.936 73.2884 168.925Z" fill="#F48A68"/>
<path d="M88.7374 163.408C87.8361 168.886 87.3615 174.565 87.2007 180.107C87.1959 180.28 87.4915 180.311 87.5147 180.136C88.2498 174.608 88.9402 169.025 89.4353 163.472C89.4699 163.086 88.8005 163.026 88.7374 163.408Z" fill="white"/>
<path d="M90.2543 162.971C90.141 162.7 89.9657 162.435 89.6804 162.305C89.387 162.171 89.107 162.158 88.7904 162.228C88.7791 162.231 88.7678 162.233 88.7564 162.235C88.6588 162.28 88.5612 162.324 88.4641 162.369L88.2257 162.565C88.0439 162.744 87.9522 163.001 87.928 163.244C87.8843 163.693 88.1232 164.193 88.5606 164.393C88.9457 164.568 89.4074 164.567 89.7715 164.338C89.9927 164.2 90.1491 163.992 90.2392 163.755C90.3255 163.527 90.3643 163.234 90.2672 163.002C90.2629 162.992 90.2586 162.982 90.2543 162.971Z" fill="#446E7C"/>
<path d="M102.368 169.293C101.142 170.82 100.034 172.439 98.8164 173.976C97.626 175.477 96.1509 176.923 95.1983 178.579C95.1077 178.736 95.3046 178.869 95.44 178.765C96.9243 177.631 98.091 175.966 99.2495 174.524C100.521 172.94 101.841 171.334 102.929 169.623C103.156 169.264 102.62 168.978 102.368 169.293Z" fill="white"/>
<path d="M103.884 168.856C103.77 168.585 103.595 168.32 103.31 168.19C103.016 168.056 102.736 168.043 102.42 168.113C102.408 168.116 102.397 168.118 102.386 168.12C102.288 168.165 102.191 168.209 102.093 168.254L101.856 168.45C101.674 168.629 101.582 168.886 101.558 169.129C101.514 169.578 101.753 170.079 102.19 170.278C102.575 170.453 103.037 170.452 103.401 170.223C103.622 170.085 103.778 169.877 103.868 169.64C103.955 169.412 103.994 169.12 103.897 168.887C103.892 168.877 103.888 168.866 103.884 168.856Z" fill="#9BA859"/>
<path d="M105.45 176.376C104.049 177.642 102.666 178.924 101.242 180.165C99.8348 181.391 98.2577 182.516 96.9897 183.879C96.8462 184.033 97.0479 184.252 97.227 184.151C98.8084 183.254 100.195 181.965 101.573 180.799C103.08 179.524 104.569 178.22 105.983 176.848C106.314 176.526 105.785 176.073 105.45 176.376Z" fill="white"/>
<path d="M107.347 175.981C107.234 175.709 107.058 175.444 106.773 175.314C106.48 175.18 106.2 175.168 105.883 175.238C105.872 175.24 105.86 175.243 105.849 175.245C105.752 175.29 105.654 175.334 105.557 175.378L105.319 175.575C105.137 175.754 105.045 176.011 105.021 176.253C104.978 176.703 105.216 177.203 105.654 177.402C106.039 177.577 106.501 177.577 106.865 177.348C107.086 177.209 107.243 177.001 107.332 176.764C107.419 176.536 107.458 176.244 107.36 176.011C107.356 176.002 107.351 175.991 107.347 175.981Z" fill="#98313C"/>
<path d="M76.3302 84.5783C80.8744 79.8681 86.664 76.3675 93.4806 74.9265C112.381 70.9316 131.894 85.2211 134.825 103.653C138.925 129.444 110.522 151.107 85.5993 142.684C59.7527 133.949 60.0246 101.479 76.3302 84.5783Z" fill="#F48A68"/>
<path d="M132.275 118.028C129.118 118.77 126.148 119.486 122.886 119.675C119.884 119.849 116.881 119.675 113.895 119.367C107.677 118.727 101.38 117.731 95.296 116.322C89.679 115.021 84.2799 112.975 79.219 110.271C76.8102 108.983 74.4736 107.554 72.232 106.008C70.1452 104.568 67.8469 101.95 65.3016 101.452C64.0719 101.211 63.245 102.397 63.5568 103.463C64.3 106.002 67.8555 108.131 69.937 109.654C72.2746 111.365 74.739 112.895 77.301 114.268C82.7966 117.214 88.7167 119.369 94.8224 120.762C101.342 122.25 108.119 123.359 114.793 123.913C121.075 124.434 128.356 124.352 133.948 121.13C135.853 120.032 134.103 117.597 132.275 118.028Z" fill="#ED7656"/>
<path d="M118.522 108.368C118.916 106.232 119.2 104.06 119.354 101.876C123.969 102.381 129.002 100.504 133.002 98.5641C135.3 97.4506 133.959 93.75 131.622 94.8698C129.417 95.9256 127.132 96.7825 124.773 97.4537C123.021 97.9522 121.228 98.265 119.481 98.754C119.501 97.0439 119.434 95.3342 119.275 93.6372C122.363 93.5123 126.01 91.0507 127.884 89.4281C129.746 87.8166 127.593 84.6912 125.59 86.2875C124.087 87.486 122.518 88.5067 120.76 89.3253C120.165 89.6024 119.474 89.8359 118.805 90.1108C118.369 87.5647 117.762 85.026 116.91 82.5859C115.977 79.9149 115.003 77.1804 112.884 75.179C111.847 74.1998 109.957 75.496 110.551 76.7764C111.637 79.1199 112.303 81.8497 112.924 84.348C113.547 86.8537 114.011 89.373 114.31 91.9344C114.921 97.1656 114.792 102.352 113.826 107.535C113.715 108.127 113.819 108.632 114.057 109.04C112.1 108.852 110.15 108.603 108.209 108.297C108.245 108.197 108.277 108.095 108.301 107.984C109.772 101.278 109.653 94.3923 107.975 87.7363C107.172 84.5485 106.021 81.4194 104.447 78.5133C103.838 77.3877 101.002 71.6343 98.9914 73.747C98.1586 74.6217 98.6656 75.7699 99.1031 76.7102C99.7589 78.1197 100.482 79.4925 101.104 80.9182C102.276 83.6092 103.258 86.3751 103.873 89.2403C105.147 95.1689 105.139 101.275 103.818 107.19C103.795 107.294 103.781 107.395 103.771 107.494C102.372 107.206 100.98 106.889 99.595 106.541C100.818 101.134 100.246 95.3327 98.9073 90.0101C98.2093 87.2362 97.273 84.5238 96.1883 81.8712C95.1047 79.2212 93.9429 76.3471 92.1333 74.0781C90.9268 72.5647 88.7693 73.8335 89.2062 75.5726C89.8464 78.1213 91.1075 80.542 92.0524 82.9957C93.0066 85.4736 93.8448 88.0034 94.4683 90.5805C95.663 95.5189 95.9095 100.352 95.2245 105.34C93.1587 104.724 91.1155 104.044 89.0967 103.297C89.1317 103.2 89.1636 103.101 89.1878 102.994C90.1803 98.6187 90.0778 94.09 89.2391 89.6989C88.8248 87.5296 88.2337 85.4206 87.505 83.3321C86.7876 81.2766 86.0482 78.9069 84.5525 77.2507C83.6722 76.2763 82.1162 76.7695 82.1194 78.1113C82.1243 80.1274 82.957 82.1456 83.4943 84.0736C84.0417 86.0388 84.5013 88.0339 84.8637 90.039C85.5638 93.9106 85.6571 97.7691 84.875 101.619C84.5277 101.471 84.1792 101.326 83.8335 101.175C81.2154 100.024 78.6502 98.7572 76.1513 97.3781C73.7042 96.028 71.3223 94.2532 68.6913 93.2756C67.3569 92.7797 65.6028 94.2984 66.7269 95.5683C68.6562 97.7486 71.3579 99.2468 73.8768 100.709C76.5218 102.245 79.2446 103.655 82.0309 104.932C87.395 107.391 93.0071 109.397 98.7503 110.84C104.515 112.287 110.419 113.213 116.36 113.583C123.167 114.008 130.164 113.989 136.555 111.382C139.099 110.344 137.696 106.485 135.082 107.439C129.675 109.414 123.832 109.655 118.104 109.344C118.302 109.082 118.45 108.759 118.522 108.368Z" fill="#ED7656"/>
<path d="M166.425 165.337C158.448 166.131 151.435 159.817 152.854 151.807C153.493 148.196 156.069 145.191 157.346 141.786C158.523 138.648 159.078 135.21 157.952 131.975C155.697 125.492 148.094 122.827 141.619 123.449C135.78 124.011 130.709 126.563 125.415 128.781C120.579 130.807 115.091 130.57 109.942 130.218C104.587 129.851 99.2782 128.856 94.1477 127.328C88.9816 125.789 83.9622 123.665 79.2174 121.157C76.8404 119.901 74.5427 118.522 72.2935 117.062C69.7078 115.382 67.6868 113.239 65.2785 111.391C64.0908 110.479 62.1086 111.642 62.7526 113.12C63.9549 115.879 66.7412 117.987 69.1506 119.746C71.5988 121.533 74.2455 123.106 76.9073 124.571C77.9952 125.17 79.0987 125.737 80.2115 126.283C78.945 128.016 78.5567 130.978 78.3879 132.648C78.0685 135.823 78.0011 140.339 79.9563 143.042C80.3889 143.64 81.5216 143.635 81.8004 142.879C82.8425 140.055 81.9871 136.594 82.2319 133.63C82.3457 132.246 82.6111 130.886 83.0237 129.557C83.2001 128.989 83.4736 128.436 83.6667 127.88C84.8506 128.394 86.0458 128.883 87.2545 129.341C85.1035 134.427 86.0458 139.971 87.5846 145.097C88.0302 146.582 90.3861 146.017 90.2707 144.529C89.9109 139.903 89.2815 135.168 90.7912 130.664C90.7993 130.641 90.8041 130.618 90.8112 130.594C91.665 130.874 92.522 131.145 93.3861 131.398C94.152 131.623 94.9212 131.832 95.693 132.032C94.6979 136.117 94.8095 140.508 96.4913 144.402C97.248 146.154 100.496 145.73 100.061 143.647C99.3105 140.046 99.0732 136.567 99.8645 132.986C101.894 133.388 103.941 133.7 105.999 133.931C105.529 135.133 105.514 136.574 105.467 137.832C105.392 139.822 105.616 142.107 106.862 143.749C107.514 144.61 108.979 144.323 109.179 143.248C109.492 141.57 109.197 139.833 109.273 138.133C109.329 136.875 109.833 135.525 109.811 134.256C110.189 134.279 110.567 134.307 110.946 134.324C115.315 134.518 119.816 134.608 124.079 133.504C130.263 131.902 135.412 127.993 141.942 127.364C145.761 126.996 149.974 127.842 152.617 130.766C155.548 134.009 154.551 138.368 152.876 141.935C151.389 145.102 149.305 147.932 148.773 151.455C148.285 154.688 148.823 158.035 150.334 160.954C153.358 166.791 160.104 170.185 166.754 169.321C169.358 168.983 169.068 165.074 166.425 165.337Z" fill="#ED7656"/>
<path d="M197.642 285.146L155.852 259.681C155.852 259.681 163.382 244.009 168.562 236.672C168.562 236.672 170.006 237.346 172.42 238.549C172.746 238.709 173.083 238.88 173.44 239.056C174.566 239.624 175.852 240.28 177.27 241.017C177.6 241.187 177.934 241.364 178.28 241.544C179.715 242.296 181.265 243.123 182.893 244.013C183.293 244.23 183.701 244.452 184.111 244.679C186.426 245.956 188.884 247.352 191.393 248.836C191.697 249.016 192.004 249.198 192.311 249.38C193.643 250.178 194.991 251 196.331 251.844C196.665 252.05 196.996 252.259 197.328 252.468C199.821 254.047 202.301 255.694 204.682 257.381C204.979 257.595 205.281 257.808 205.577 258.025C207.027 259.068 208.436 260.128 209.78 261.196C210.057 261.412 210.329 261.63 210.596 261.848C211.802 262.827 212.954 263.806 214.036 264.792C214.314 264.821 203.845 278.49 197.642 285.146Z" fill="#FEC868"/>
<path d="M170.875 281.111L170.918 281.044L170.757 280.991L170.639 280.872L170.596 280.939L145.4 272.72L143.087 276.261C143.087 276.261 155.252 299.051 141.67 314.441C141.67 314.441 114.482 338.923 127.033 347.621L127.023 347.636C127.072 347.665 127.12 347.688 127.168 347.715C127.214 347.746 127.255 347.778 127.303 347.809L127.312 347.794C140.735 355.157 151.976 320.814 151.976 320.814C160.534 302.317 186.907 303.357 186.907 303.357L189.22 299.817L170.875 281.111ZM130.003 343.079C128.481 342.137 128.031 340.174 128.999 338.693C129.966 337.212 131.984 336.775 133.506 337.716C135.028 338.658 135.478 340.621 134.51 342.102C133.543 343.582 131.525 344.02 130.003 343.079Z" fill="#FBA74D"/>
<path d="M198.289 285.938L189.012 300.137L145.192 273.041L154.469 258.841C154.956 258.094 155.974 257.874 156.741 258.348L197.783 283.726C198.55 284.201 198.776 285.191 198.289 285.938Z" fill="#F2F2F2"/>
<path d="M147.302 269.817L146.601 270.89L190.424 297.986L191.124 296.914L147.302 269.817Z" fill="#FBA74D"/>
<path d="M164.345 255.898C164.068 256.363 163.23 255.999 163.451 255.495C165.055 251.838 167.002 248.318 168.927 244.814C169.929 242.991 170.931 241.167 171.968 239.361C172.122 239.095 172.273 238.823 172.421 238.549C172.746 238.709 173.083 238.88 173.44 239.055C173.269 239.36 173.102 239.663 172.944 239.964C172.017 241.714 171.077 243.456 170.152 245.202C168.253 248.783 166.437 252.422 164.345 255.898Z" fill="#F9BD5D"/>
<path d="M171.074 255.162C170.797 255.686 169.919 255.272 170.117 254.731C171.211 251.73 172.689 248.857 174.254 246.064C175.076 244.6 175.941 243.151 176.841 241.731C176.986 241.504 177.124 241.262 177.269 241.017C177.599 241.187 177.933 241.363 178.279 241.544C178.107 241.807 177.939 242.064 177.792 242.319C177.005 243.689 176.235 245.069 175.495 246.463C173.967 249.335 172.597 252.286 171.074 255.162Z" fill="#F9BD5D"/>
<path d="M178.989 252.44C176.607 256.015 174.222 259.612 171.535 262.979C171.141 263.474 170.34 263.001 170.683 262.452C172.949 258.806 175.46 255.306 177.856 251.74C179.566 249.199 181.175 246.564 182.893 244.013C183.292 244.23 183.701 244.452 184.11 244.678C182.49 247.317 180.692 249.88 178.989 252.44Z" fill="#F9BD5D"/>
<path d="M185.496 260.887C185.208 261.428 184.255 260.993 184.497 260.439C185.617 257.882 186.945 255.448 188.459 253.089C188.634 252.814 190.088 250.619 191.393 248.835C191.696 249.016 192.003 249.198 192.31 249.38C191.731 250.219 191.162 251.061 190.613 251.918C188.752 254.822 187.112 257.852 185.496 260.887Z" fill="#F9BD5D"/>
<path d="M196.227 254.11C195.077 255.895 193.918 257.674 192.742 259.439C190.331 263.064 187.945 266.705 185.331 270.196C184.917 270.746 184.039 270.214 184.408 269.626C186.722 265.941 189.228 262.378 191.662 258.771C192.911 256.923 194.164 255.083 195.417 253.236C195.725 252.783 196.027 252.314 196.331 251.844C196.664 252.05 196.996 252.259 197.327 252.468C196.955 253.02 196.578 253.567 196.227 254.11Z" fill="#F9BD5D"/>
<path d="M200.774 264.672C198.37 268.143 196.068 271.685 193.832 275.261C193.415 275.929 192.37 275.278 192.78 274.609C195.05 270.927 197.445 267.326 199.957 263.794C201.48 261.653 203.017 259.46 204.682 257.38C204.979 257.594 205.281 257.807 205.577 258.024C203.988 260.248 202.323 262.43 200.774 264.672Z" fill="#F9BD5D"/>
<path d="M210.597 261.848C209.395 263.574 208.091 265.245 206.867 266.934C204.924 269.625 203.039 272.356 201.095 275.047C200.673 275.629 199.741 275.06 200.134 274.452C201.98 271.573 203.985 268.799 206.034 266.054C207.239 264.435 208.455 262.763 209.78 261.196C210.057 261.412 210.329 261.629 210.597 261.848Z" fill="#F9BD5D"/>
<path d="M273.502 314.368L276.799 318.082L277.255 318.598L317.674 364.132C318.237 364.769 317.852 365.628 317.234 365.91C316.921 366.052 316.549 366.047 316.208 365.783L278.97 336.847L262.011 323.672C261.558 323.316 261.488 322.63 261.86 322.143L263.339 320.184C263.692 319.716 264.325 319.594 264.78 319.903L267.832 321.994C268.091 322.169 268.415 322.214 268.718 322.11C268.729 322.109 268.737 322.106 268.745 322.104L270.086 321.628C270.442 321.503 270.701 321.207 270.805 320.861C270.856 320.693 270.869 320.51 270.834 320.332L270.066 316.284C269.974 315.803 270.211 315.299 270.647 315.062L272.244 314.174C272.676 313.934 273.191 314.015 273.502 314.368Z" fill="#F2F2F2"/>
<path d="M215.907 290.45C214.119 293.684 214.013 297.952 215.067 301.396C218.99 314.214 232.939 316.465 244.61 317.585C252.277 318.32 256.996 321.815 262.596 326.483L263.531 325.827L268.518 320.376L233.089 287.583C233.089 287.583 222.299 278.891 215.907 290.45ZM240.58 310.899C236.355 313.183 229.522 310.79 225.989 308.098C222.804 305.672 219.066 301.782 218.992 297.584C218.973 296.562 219.207 295.549 219.633 294.611C223.867 285.295 233.154 292.618 237.932 296.903C241.908 300.469 247.494 307.163 240.58 310.899Z" fill="#E46959"/>
<path d="M234.445 286.312L269.062 319.917L274.532 314.926L275.182 314C270.24 308.674 266.527 304.175 265.572 296.738C264.118 285.416 261.444 271.908 248.17 268.426C244.604 267.491 240.222 267.704 236.945 269.528C225.234 276.044 234.445 286.312 234.445 286.312ZM244.148 290.781C239.621 286.245 231.855 277.403 241.318 273.044C242.271 272.604 243.306 272.351 244.356 272.343C248.672 272.306 252.766 275.841 255.342 278.875C258.199 282.241 260.835 288.824 258.599 292.993C254.939 299.813 247.916 294.555 244.148 290.781Z" fill="#E46959"/>
<path d="M359.915 172.602L403.045 237.617L396.249 241.884L350.342 172.682L359.915 172.602Z" fill="#E6E6E6"/>
<path d="M361.958 175.682L362.535 176.552C361.942 178.086 361.34 179.615 360.743 181.144C360.153 182.659 359.562 184.171 358.966 185.682L358.337 184.734C358.836 183.499 359.339 182.263 359.836 181.026C360.554 179.25 361.253 177.465 361.958 175.682Z" fill="#CCCCCC"/>
<path d="M367.84 184.548L368.417 185.417C367.823 186.951 367.222 188.48 366.625 190.01C366.035 191.524 365.444 193.037 364.848 194.548L364.219 193.6C364.718 192.365 365.22 191.129 365.718 189.892C366.436 188.115 367.135 186.33 367.84 184.548Z" fill="#CCCCCC"/>
<path d="M373.722 193.414L374.299 194.283C373.705 195.817 373.104 197.346 372.507 198.876C371.917 200.39 371.326 201.902 370.729 203.414L370.101 202.466C370.6 201.231 371.102 199.994 371.6 198.758C372.318 196.981 373.017 195.196 373.722 193.414Z" fill="#CCCCCC"/>
<path d="M379.602 202.279L380.179 203.149C379.586 204.683 378.984 206.212 378.387 207.741C377.797 209.256 377.206 210.768 376.61 212.279L375.981 211.331C376.48 210.096 376.983 208.86 377.48 207.623C378.198 205.847 378.897 204.062 379.602 202.279Z" fill="#CCCCCC"/>
<path d="M385.484 211.145L386.061 212.015C385.467 213.549 384.866 215.078 384.269 216.607C383.679 218.122 383.088 219.634 382.492 221.145L381.863 220.197C382.362 218.962 382.864 217.726 383.362 216.489C384.08 214.713 384.779 212.928 385.484 211.145Z" fill="#CCCCCC"/>
<path d="M391.366 220.01L391.943 220.88C391.349 222.414 390.748 223.943 390.151 225.473C389.561 226.987 388.97 228.499 388.374 230.011L387.745 229.062C388.244 227.828 388.746 226.591 389.244 225.355C389.961 223.578 390.66 221.793 391.366 220.01Z" fill="#CCCCCC"/>
<path d="M397.248 228.876L397.824 229.746C397.231 231.28 396.63 232.809 396.033 234.338C395.443 235.853 394.851 237.365 394.255 238.877L393.626 237.928C394.126 236.694 394.628 235.457 395.126 234.22C395.844 232.444 396.542 230.659 397.248 228.876Z" fill="#CCCCCC"/>
<path d="M370.277 179.549L427.616 265.983C427.928 266.453 427.723 267.123 427.159 267.477L414.135 275.655C413.571 276.009 412.86 275.915 412.548 275.444L355.229 189.04C355.055 188.777 355.036 188.439 355.179 188.119L359.121 179.292C359.341 178.797 359.895 178.471 360.442 178.507L369.505 179.127C369.832 179.149 370.114 179.303 370.277 179.549Z" fill="#FBA74D"/>
<path d="M420.013 254.521L427.617 265.983C427.929 266.453 427.724 267.123 427.16 267.477L414.136 275.655C413.572 276.009 412.861 275.915 412.549 275.444L404.945 263.983L420.013 254.521Z" fill="#32464F"/>
<path d="M369.643 187.414L362.848 191.681L406.633 257.681L413.429 253.414L369.643 187.414Z" fill="#E6E6E6"/>
<path d="M372.338 191.49L372.914 192.359C372.321 193.894 371.72 195.422 371.122 196.952C370.532 198.466 369.941 199.979 369.345 201.49L368.716 200.542C369.216 199.307 369.718 198.071 370.216 196.834C370.934 195.058 371.633 193.272 372.338 191.49Z" fill="#CCCCCC"/>
<path d="M378.219 200.355L378.796 201.225C378.203 202.759 377.601 204.288 377.004 205.817C376.414 207.332 375.823 208.844 375.227 210.355L374.598 209.407C375.098 208.172 375.6 206.936 376.098 205.699C376.816 203.923 377.515 202.138 378.219 200.355Z" fill="#CCCCCC"/>
<path d="M384.101 209.221L384.678 210.091C384.085 211.625 383.483 213.154 382.886 214.683C382.296 216.198 381.705 217.71 381.109 219.221L380.48 218.273C380.979 217.038 381.482 215.802 381.979 214.565C382.697 212.789 383.396 211.004 384.101 209.221Z" fill="#CCCCCC"/>
<path d="M389.982 218.087L390.558 218.956C389.965 220.491 389.364 222.019 388.766 223.549C388.176 225.063 387.585 226.576 386.989 228.087L386.36 227.139C386.86 225.904 387.362 224.668 387.86 223.431C388.577 221.654 389.276 219.869 389.982 218.087Z" fill="#CCCCCC"/>
<path d="M395.864 226.953L396.44 227.822C395.847 229.356 395.245 230.885 394.648 232.415C394.058 233.929 393.467 235.441 392.871 236.953L392.242 236.004C392.742 234.77 393.244 233.533 393.742 232.297C394.459 230.52 395.158 228.735 395.864 226.953Z" fill="#CCCCCC"/>
<path d="M401.745 235.818L402.322 236.688C401.729 238.222 401.127 239.751 400.53 241.28C399.94 242.795 399.349 244.307 398.753 245.818L398.124 244.87C398.623 243.635 399.126 242.399 399.623 241.162C400.341 239.386 401.04 237.601 401.745 235.818Z" fill="#CCCCCC"/>
<path d="M407.627 244.684L408.204 245.553C407.61 247.088 407.009 248.616 406.412 250.146C405.822 251.661 405.231 253.173 404.635 254.684L404.006 253.736C404.505 252.501 405.007 251.265 405.505 250.028C406.223 248.252 406.922 246.467 407.627 244.684Z" fill="#CCCCCC"/>
<path d="M369.643 187.414L362.848 191.681L406.633 257.681L413.429 253.414L369.643 187.414Z" fill="#E6E6E6"/>
<path d="M372.338 191.49L372.914 192.359C372.321 193.894 371.72 195.422 371.122 196.952C370.532 198.466 369.941 199.979 369.345 201.49L368.716 200.542C369.216 199.307 369.718 198.071 370.216 196.834C370.934 195.058 371.633 193.272 372.338 191.49Z" fill="#CCCCCC"/>
<path d="M378.219 200.355L378.796 201.225C378.203 202.759 377.601 204.288 377.004 205.817C376.414 207.332 375.823 208.844 375.227 210.355L374.598 209.407C375.098 208.172 375.6 206.936 376.098 205.699C376.816 203.923 377.515 202.138 378.219 200.355Z" fill="#CCCCCC"/>
<path d="M384.101 209.221L384.678 210.091C384.085 211.625 383.483 213.154 382.886 214.683C382.296 216.198 381.705 217.71 381.109 219.221L380.48 218.273C380.979 217.038 381.482 215.802 381.979 214.565C382.697 212.789 383.396 211.004 384.101 209.221Z" fill="#CCCCCC"/>
<path d="M389.982 218.087L390.558 218.956C389.965 220.491 389.364 222.019 388.766 223.549C388.176 225.063 387.585 226.576 386.989 228.087L386.36 227.139C386.86 225.904 387.362 224.668 387.86 223.431C388.577 221.654 389.276 219.869 389.982 218.087Z" fill="#CCCCCC"/>
<path d="M395.864 226.953L396.44 227.822C395.847 229.356 395.245 230.885 394.648 232.415C394.058 233.929 393.467 235.441 392.871 236.953L392.242 236.004C392.742 234.77 393.244 233.533 393.742 232.297C394.459 230.52 395.158 228.735 395.864 226.953Z" fill="#CCCCCC"/>
<path d="M401.745 235.818L402.322 236.688C401.729 238.222 401.127 239.751 400.53 241.28C399.94 242.795 399.349 244.307 398.753 245.818L398.124 244.87C398.623 243.635 399.126 242.399 399.623 241.162C400.341 239.386 401.04 237.601 401.745 235.818Z" fill="#CCCCCC"/>
<path d="M407.627 244.684L408.204 245.553C407.61 247.088 407.009 248.616 406.412 250.146C405.822 251.661 405.231 253.173 404.635 254.684L404.006 253.736C404.505 252.501 405.007 251.265 405.505 250.028C406.223 248.252 406.922 246.467 407.627 244.684Z" fill="#CCCCCC"/>
<path d="M399.572 239.797C396.647 241.633 392.709 240.808 390.821 237.962L385.433 229.84C383.545 226.994 384.394 223.163 387.319 221.326C390.244 219.49 394.182 220.315 396.069 223.161L401.458 231.283C403.345 234.129 402.497 237.96 399.572 239.797Z" fill="#32464F"/>
<path d="M188.704 81.5759C183.507 73.1982 176.564 64.725 166.772 60.4871C164.098 59.3295 160.467 58.0271 157.528 58.5481C157.363 58.4736 157.17 58.4427 156.957 58.4857C155.648 58.7496 154.873 59.3526 154.465 60.1476C154.235 60.3911 154.035 60.6471 153.865 60.9142C153.029 61.6967 152.638 62.849 152.712 64.0454C152.776 65.0787 153.189 66.0463 153.774 66.9473C154.23 68.0472 154.881 69.1014 155.642 70.0129C157.056 71.7074 158.728 73.2575 160.525 74.6921C161.715 76.1751 163.004 77.5961 164.386 78.9432C167.874 82.343 171.961 85.2706 176.397 87.5029C179.123 88.8752 181.97 89.9546 184.867 90.8776C187.732 95.1543 190.726 99.3566 194.274 103.248C197.424 106.702 200.99 109.895 205.038 112.452C205.289 112.677 205.537 112.904 205.793 113.126C209.097 115.985 213.426 119.368 218.026 118.326C219.019 118.101 219.814 117.692 220.425 117.155C220.675 117.134 220.925 117.103 221.174 117.062C225.11 116.408 226.252 112.818 224.875 109.473C223.229 105.473 219.324 102.149 215.505 99.7559C209.73 96.1367 203.287 94.256 196.783 92.561C195.915 92.0615 195.046 91.5635 194.174 91.0697C192.374 87.8676 190.616 84.6577 188.704 81.5759ZM219.591 115.529C219.453 115.532 219.313 115.53 219.173 115.524C218.692 115.505 218.213 115.451 217.738 115.368C218.652 114.228 218.018 112.724 217.263 111.462C216.041 109.419 214.565 107.496 212.933 105.686C212.682 105.408 212.426 105.134 212.168 104.862C213.88 105.923 215.569 107.02 217.228 108.162C217.814 108.718 218.36 109.3 218.834 109.919C220.131 111.607 220.834 114.003 219.591 115.529ZM207.47 112.105C206.956 111.814 206.451 111.508 205.952 111.195C203.765 109.191 201.768 106.974 199.954 104.845C196.824 101.169 194.051 97.2696 191.378 93.3324C191.362 93.3072 191.344 93.2826 191.328 93.2574C192.433 93.8514 193.539 94.4438 194.645 95.0358C196.043 97.4354 197.496 99.8105 199.091 102.12C201.921 106.22 205.251 110.209 209.489 113.223C208.781 112.853 208.102 112.463 207.47 112.105ZM163.223 73.82C161.941 72.77 160.68 71.6895 159.461 70.5734C157.877 68.2414 155.413 64.2323 155.708 61.8515C157.77 60.8371 161.516 62.6249 163.432 63.6099C164.581 64.2002 165.671 64.8819 166.714 65.6229C166.002 65.1191 165.266 64.6473 164.502 64.2223C163.039 63.4084 161.035 62.4864 159.493 63.2725C157.826 64.1221 158.177 66.2877 158.736 67.8084C159.409 69.6393 160.735 71.2624 162.213 72.6729C165.899 76.1903 170.588 79.0361 174.961 81.7459C176.131 82.4716 177.311 83.1837 178.496 83.8869C176.97 83.1118 175.452 82.3236 173.95 81.5076C173.736 81.3911 173.523 81.2736 173.309 81.1566C169.821 78.8713 166.436 76.4501 163.223 73.82ZM206.333 108.384C202.726 104.787 199.875 100.7 197.301 96.4594C199.644 97.7172 201.982 98.9814 204.306 100.27C204.709 100.494 205.111 100.72 205.513 100.946C206.833 101.989 208.109 103.085 209.328 104.247C211.163 105.995 212.836 107.877 214.282 109.894C214.959 110.839 215.744 111.868 216.2 112.908C216.656 113.945 216.274 114.532 215.465 114.75C211.967 113.466 208.769 110.813 206.333 108.384ZM182.552 84.5654C181.867 83.53 181.181 82.4978 180.486 81.4725C177.532 77.1092 174.427 72.6886 170.575 68.8837C169.683 68.0021 168.733 67.1546 167.726 66.3706C168.644 67.078 169.525 67.8273 170.37 68.6061C175.758 73.5702 180.005 79.4506 184.004 85.3861C183.519 85.1137 183.035 84.8403 182.552 84.5654ZM179.544 82.8321C174.522 79.893 169.629 76.7702 165.16 73.1893C163.331 71.7236 161.513 70.0376 160.572 67.9842C160.156 67.078 159.516 65.3883 160.409 64.7428C161.338 64.0712 163.11 65.148 164.018 65.6538C169.019 68.4423 172.605 73.0943 175.797 77.4518C177.092 79.2197 178.329 81.0196 179.544 82.8321ZM171.241 64.5665C175.839 67.5723 179.665 71.5625 182.864 75.7773C186.2 80.1742 188.885 84.8744 191.543 89.5893C190.126 88.798 188.703 88.0083 187.278 87.2159C183.394 81.4169 179.418 75.6593 174.572 70.4275C171.038 66.6131 166.864 63.0101 161.814 61.0696C160.712 60.6461 159.455 60.2116 158.209 60.0096C160.107 59.7252 162.321 60.3979 164.115 61.0181C166.627 61.8866 169.026 63.1187 171.241 64.5665ZM166.913 79.1525C167.17 79.3147 167.427 79.4753 167.682 79.6348C169.324 80.656 171 81.6215 172.696 82.554C173.452 83.0373 174.21 83.5169 174.974 83.9876C177.518 85.5561 180.102 87.0616 182.708 88.5314C176.838 86.3422 171.455 83.1926 166.913 79.1525ZM187.233 91.5955C187.609 91.7046 187.986 91.8122 188.363 91.9177C191.04 95.9068 193.79 99.906 196.842 103.702C193.204 99.9579 190.129 95.8287 187.233 91.5955ZM213.858 116.466C214.482 116.559 215.084 116.575 215.642 116.489C216.058 116.628 216.477 116.748 216.899 116.849C215.91 116.959 214.866 116.793 213.858 116.466ZM221.142 106.579C222.556 108.29 223.988 110.529 223.696 112.635C223.526 113.861 222.766 114.666 221.73 115.109C222.2 113.54 221.874 111.657 220.816 109.967C219.502 107.87 217.359 106.246 215.365 104.692C213.244 103.041 211.049 101.475 208.811 99.9663C206.513 98.4178 204.165 96.9401 201.788 95.5049C209.141 97.6973 216.317 100.735 221.142 106.579Z" fill="#9BA859"/>
<path d="M202.896 91.1914C202.896 91.1914 199.877 97.658 194.378 101.547C193.789 101.964 193.173 102.348 192.534 102.694L177.588 90.6719C177.588 90.6719 180.034 85.1709 184.913 80.359C185.687 79.5912 186.522 78.8445 187.42 78.1414L202.896 91.1914Z" fill="#516752"/>
<path d="M202.895 91.1914C202.895 91.1914 199.875 97.658 194.377 101.547C194.266 98.5395 193.697 95.464 192.731 92.8166C191.279 88.8405 188.494 84.9873 185.888 81.6478C185.561 81.2295 185.238 80.7924 184.911 80.359C185.685 79.5912 186.521 78.8445 187.418 78.1414L202.895 91.1914Z" fill="#4B634B"/>
<path d="M259.397 106.688C259.786 106.481 260.195 106.278 260.635 106.255C262.37 106.178 263.82 108.636 264.898 109.659C265.766 110.488 266.82 111.34 267.241 112.49C267.463 113.096 267.421 113.662 267.238 114.198C267.015 114.869 266.572 115.493 266.158 116.119C264.745 118.24 262.922 119.877 260.835 121.141C258.768 122.397 256.448 123.278 254.017 123.899C252.244 124.352 250.474 124.709 248.749 125.323C248.54 125.399 245.821 126.331 245.808 126.2C245.336 122.231 247.496 118.179 249.77 115.03C250.521 113.986 251.349 113.005 252.247 112.079C254.318 109.93 256.751 108.104 259.397 106.688Z" fill="#FCD4BB"/>
<path d="M260.494 106.011L262.769 104.005L264.016 102.907L270.759 96.9628L353.043 24.4546C354.548 23.137 356.858 23.2288 358.243 24.664C359.634 26.105 359.576 28.3698 358.114 29.7415L278.114 104.584L271.597 110.681L270.241 111.95L268.13 113.924L260.494 106.011Z" fill="#FBA74D"/>
<path d="M260.494 106.011L262.769 104.005L264.016 102.908L270.759 96.9631L278.114 104.584L271.597 110.681L270.241 111.951L268.131 113.925L260.494 106.011Z" fill="#F2F2F2"/>
<path d="M262.769 104.005L264.015 102.907C265.444 104.317 266.854 105.751 268.23 107.21C269.225 108.262 270.501 109.427 271.596 110.681L270.24 111.95C269.074 110.731 268.003 109.348 266.958 108.259C265.579 106.823 264.182 105.404 262.769 104.005Z" fill="#E6E6E6"/>
<path d="M252.25 112.079C252.164 113.179 250.872 114.635 251.949 115.323C253.44 116.282 256.169 113.41 257.456 112.817C258.785 112.208 260.882 112.377 259.832 114.195C259.081 115.485 256.898 116.984 257.223 118.667C257.441 119.783 258.74 120.081 259.71 120.283C260.254 120.396 260.513 120.348 260.752 120.866C260.796 120.958 260.825 121.053 260.836 121.141C258.77 122.397 256.449 123.278 254.018 123.899C252.245 124.352 250.476 124.709 248.75 125.323C248.541 125.399 245.823 126.331 245.809 126.2C245.337 122.231 247.497 118.179 249.771 115.03C250.523 113.986 251.351 113.004 252.25 112.079Z" fill="#E46959"/>
</g>
<path d="M175.74 167.784C175.428 162.84 175.272 158.316 175.272 154.212C175.272 150.084 175.404 146.34 175.668 142.98L180.456 143.412C180.096 147.54 179.916 151.488 179.916 155.256C179.916 159.024 179.976 161.796 180.096 163.572C180.96 163.452 183.084 163.212 186.468 162.852L187.188 167.028C185.388 167.244 182.844 167.604 179.556 168.108L175.74 167.784ZM191.713 161.52C191.713 164.232 192.313 165.588 193.513 165.588C194.041 165.588 194.485 164.832 194.845 163.32C195.205 161.784 195.385 160.32 195.385 158.928C195.385 155.856 194.881 154.32 193.873 154.32C193.225 154.32 192.697 155.148 192.289 156.804C191.905 158.436 191.713 160.008 191.713 161.52ZM187.501 161.196C187.501 158.964 187.957 156.78 188.869 154.644C189.349 153.564 190.021 152.688 190.885 152.016C191.773 151.32 192.757 150.972 193.837 150.972C194.917 150.972 195.841 151.224 196.609 151.728C197.401 152.208 198.001 152.856 198.409 153.672C199.201 155.28 199.597 157.032 199.597 158.928C199.597 161.544 199.057 163.872 197.977 165.912C196.921 167.928 195.433 168.936 193.513 168.936C189.505 168.936 187.501 166.356 187.501 161.196ZM209.647 151.944C211.111 151.944 212.227 152.448 212.995 153.456C214.243 151.632 215.479 150.72 216.703 150.72C220.039 150.72 221.707 153.228 221.707 158.244C221.707 161.076 221.467 164.508 220.987 168.54L216.811 168.18C217.267 163.692 217.495 160.272 217.495 157.92C217.495 155.568 217.111 154.392 216.343 154.392C216.007 154.392 215.611 154.932 215.155 156.012C214.699 157.092 214.399 158.292 214.255 159.612C214.207 162.612 214.111 165.288 213.967 167.64L209.755 167.244C209.947 163.86 210.043 161.076 210.043 158.892C210.043 156.708 209.743 155.616 209.143 155.616C208.759 155.616 208.255 156.288 207.631 157.632C207.031 158.952 206.599 160.344 206.335 161.808C206.359 164.016 206.467 166.296 206.659 168.648L202.447 168.252C202.183 164.868 202.051 161.784 202.051 159C202.051 156.216 202.123 153.612 202.267 151.188L205.255 151.404C205.399 152.052 205.603 153.228 205.867 154.932C207.139 152.94 208.399 151.944 209.647 151.944ZM234.179 151.044C235.331 151.044 236.183 151.68 236.735 152.952C237.311 154.224 237.599 155.736 237.599 157.488C237.599 159.216 237.407 160.932 237.023 162.636C236.663 164.34 236.075 165.792 235.259 166.992C234.467 168.168 233.555 168.756 232.523 168.756C231.011 168.756 229.763 168.084 228.779 166.74C228.779 167.076 228.803 167.556 228.851 168.18L225.683 167.856C225.539 164.976 225.467 161.112 225.467 156.264C225.467 151.392 225.599 146.508 225.863 141.612L229.967 141.972C229.679 146.7 229.535 150.996 229.535 154.86C231.143 152.316 232.691 151.044 234.179 151.044ZM229.535 161.016L229.571 163.824C229.859 164.232 230.111 164.52 230.327 164.688C230.543 164.832 230.867 164.904 231.299 164.904C231.899 164.904 232.427 164.244 232.883 162.924C233.339 161.58 233.567 160.308 233.567 159.108C233.567 157.908 233.495 157.044 233.351 156.516C233.231 155.988 232.955 155.724 232.523 155.724C231.611 155.724 230.615 157.488 229.535 161.016ZM240.359 157.38C240.719 155.508 241.403 153.924 242.411 152.628C243.419 151.308 244.739 150.648 246.371 150.648C248.003 150.648 249.203 151.332 249.971 152.7C250.763 154.044 251.159 155.964 251.159 158.46C251.159 160.956 251.015 164.4 250.727 168.792L247.703 168.54L247.415 167.388C246.287 168.036 245.135 168.36 243.959 168.36C242.783 168.36 241.811 167.976 241.043 167.208C240.275 166.416 239.891 165.288 239.891 163.824C239.891 162.36 240.611 161.1 242.051 160.044C243.515 158.988 245.195 158.436 247.091 158.388V157.416C247.091 155.52 246.635 154.572 245.723 154.572C245.267 154.572 244.847 154.896 244.463 155.544C244.103 156.168 243.839 156.888 243.671 157.704L240.359 157.38ZM243.563 164.04C243.563 164.808 244.019 165.192 244.931 165.192C245.555 165.192 246.215 165.048 246.911 164.76L246.983 161.736C245.855 161.832 245.003 162.12 244.427 162.6C243.851 163.056 243.563 163.536 243.563 164.04ZM263.861 167.784C263.693 164.112 263.609 159.972 263.609 155.364C263.609 150.756 263.729 146.82 263.969 143.556L268.901 144.024C268.661 147 268.541 150.684 268.541 155.076C271.565 150.108 273.845 145.944 275.381 142.584L279.917 144.384C278.189 147.84 275.849 151.848 272.897 156.408C275.297 160.224 277.613 163.104 279.845 165.048L276.533 168.792C273.749 166.08 271.085 162.372 268.541 157.668C268.541 162.06 268.625 165.612 268.793 168.324L263.861 167.784ZM288.581 155.004C287.573 155.004 286.817 156.276 286.313 158.82C286.361 160.5 286.385 162.108 286.385 163.644C286.385 165.18 286.337 166.908 286.241 168.828L282.065 168.468C282.137 164.94 282.173 162.996 282.173 162.636C282.173 158.196 281.957 154.8 281.525 152.448L284.225 152.736C284.393 153.432 284.585 154.044 284.801 154.572C285.977 152.052 287.165 150.792 288.365 150.792C289.349 150.792 290.213 151.224 290.957 152.088L290.021 155.4C289.637 155.136 289.157 155.004 288.581 155.004ZM297.429 165.408C298.341 165.408 299.313 164.532 300.345 162.78L303.081 164.4C302.625 165.192 302.181 165.864 301.749 166.416C301.341 166.968 300.717 167.496 299.877 168C299.037 168.504 298.101 168.756 297.069 168.756C295.557 168.756 294.285 168.12 293.253 166.848C292.221 165.552 291.705 163.812 291.705 161.628C291.705 159.132 292.149 156.804 293.037 154.644C293.517 153.516 294.201 152.604 295.089 151.908C296.001 151.188 296.925 150.828 297.861 150.828C298.821 150.828 299.589 150.984 300.165 151.296C300.741 151.584 301.197 151.92 301.533 152.304C301.893 152.664 302.205 153.204 302.469 153.924C302.733 154.644 302.913 155.232 303.009 155.688C303.129 156.144 303.225 156.804 303.297 157.668C303.393 158.82 303.441 159.864 303.441 160.8C301.521 161.328 299.037 161.808 295.989 162.24C296.061 163.2 296.229 163.968 296.493 164.544C296.757 165.12 297.069 165.408 297.429 165.408ZM298.221 154.356C297.693 154.356 297.213 154.884 296.781 155.94C296.373 156.996 296.133 158.22 296.061 159.612C297.333 159.348 298.437 159.096 299.373 158.856C299.373 155.856 298.989 154.356 298.221 154.356ZM305.679 157.38C306.039 155.508 306.723 153.924 307.731 152.628C308.739 151.308 310.059 150.648 311.691 150.648C313.323 150.648 314.523 151.332 315.291 152.7C316.083 154.044 316.479 155.964 316.479 158.46C316.479 160.956 316.335 164.4 316.047 168.792L313.023 168.54L312.735 167.388C311.607 168.036 310.455 168.36 309.279 168.36C308.103 168.36 307.131 167.976 306.363 167.208C305.595 166.416 305.211 165.288 305.211 163.824C305.211 162.36 305.931 161.1 307.371 160.044C308.835 158.988 310.515 158.436 312.411 158.388V157.416C312.411 155.52 311.955 154.572 311.043 154.572C310.587 154.572 310.167 154.896 309.783 155.544C309.423 156.168 309.159 156.888 308.991 157.704L305.679 157.38ZM308.883 164.04C308.883 164.808 309.339 165.192 310.251 165.192C310.875 165.192 311.535 165.048 312.231 164.76L312.303 161.736C311.175 161.832 310.323 162.12 309.747 162.6C309.171 163.056 308.883 163.536 308.883 164.04ZM326.583 156.66C326.583 155.22 326.223 154.5 325.503 154.5C325.143 154.5 324.807 154.68 324.495 155.04C324.207 155.376 324.063 155.844 324.063 156.444C324.063 157.02 324.171 157.5 324.387 157.884C324.627 158.268 325.047 158.652 325.647 159.036C326.271 159.396 326.751 159.696 327.087 159.936C327.447 160.152 327.867 160.464 328.347 160.872C329.331 161.736 329.823 162.852 329.823 164.22C329.823 165.564 329.307 166.656 328.275 167.496C327.267 168.336 326.127 168.756 324.855 168.756C323.583 168.756 322.431 168.42 321.399 167.748C320.391 167.052 319.575 166.188 318.951 165.156L320.895 162.96C321.855 164.616 322.863 165.444 323.919 165.444C324.279 165.444 324.591 165.348 324.855 165.156C325.119 164.94 325.251 164.652 325.251 164.292C325.251 163.524 324.699 162.816 323.595 162.168C322.419 161.52 321.495 160.8 320.823 160.008C320.151 159.216 319.815 158.1 319.815 156.66C319.815 155.196 320.415 153.888 321.615 152.736C322.815 151.56 324.099 150.972 325.467 150.972C326.859 150.972 327.951 151.452 328.743 152.412C329.559 153.348 329.967 154.62 329.967 156.228C329.967 156.876 329.895 157.572 329.751 158.316L326.475 158.028C326.547 157.476 326.583 157.02 326.583 156.66ZM333.015 150.828L337.119 151.224V168.504L333.015 168.108V150.828ZM333.303 144.492L337.335 144.96L336.975 148.992L332.943 148.488L333.303 144.492ZM152.855 202.54C152.855 203.788 153.131 204.904 153.683 205.888C154.235 206.872 154.883 207.364 155.627 207.364C156.395 207.364 157.007 207.028 157.463 206.356C157.919 205.684 158.243 204.796 158.435 203.692C158.771 201.748 158.939 199.504 158.939 196.96C158.939 194.392 158.783 190.636 158.471 185.692L163.367 186.196C163.703 191.14 163.871 194.5 163.871 196.276C163.871 198.052 163.847 199.3 163.799 200.02C163.751 200.716 163.655 201.532 163.511 202.468C163.367 203.404 163.175 204.28 162.935 205.096C162.695 205.912 162.371 206.728 161.963 207.544C161.555 208.36 161.075 209.056 160.523 209.632C159.299 210.952 157.631 211.612 155.519 211.612C153.431 211.612 151.643 210.676 150.155 208.804C148.667 206.932 147.923 204.844 147.923 202.54C147.923 197.476 148.199 192.076 148.751 186.34L153.647 186.808C153.119 192.064 152.855 197.308 152.855 202.54ZM174.637 193.864C177.805 193.864 179.389 196.504 179.389 201.784C179.389 204.568 179.233 207.52 178.921 210.64L174.709 210.244C174.973 207.508 175.105 204.748 175.105 201.964C175.105 199.156 174.709 197.752 173.917 197.752C173.533 197.752 173.041 198.724 172.441 200.668C171.841 202.588 171.469 204.472 171.325 206.32C171.373 207.304 171.469 209.08 171.613 211.648L167.401 211.252C167.137 207.868 167.005 204.892 167.005 202.324C167.005 199.756 167.077 197.452 167.221 195.412L169.885 195.7C169.933 195.892 170.113 196.672 170.425 198.04C171.817 195.256 173.221 193.864 174.637 193.864ZM183.127 193.828L187.231 194.224V211.504L183.127 211.108V193.828ZM183.415 187.492L187.447 187.96L187.087 191.992L183.055 191.488L183.415 187.492ZM191.418 211.288C191.322 208.792 191.274 205.096 191.274 200.2C191.274 195.304 191.454 190.132 191.814 184.684L196.026 185.008C195.666 190.888 195.486 196.552 195.486 202C197.982 198.952 199.854 195.988 201.102 193.108L203.982 195.628C202.902 198.148 201.462 200.644 199.662 203.116C201.534 205.3 203.022 207.34 204.126 209.236L201.39 211.828C200.094 209.812 198.126 207.424 195.486 204.664C195.486 207.328 195.534 209.668 195.63 211.684L191.418 211.288ZM221.635 194.692L221.671 190.228C221.671 188.572 221.635 186.688 221.563 184.576L225.775 184.936C225.823 186.64 225.847 189.736 225.847 194.224C225.847 198.688 225.655 204.448 225.271 211.504L222.067 211.216C221.995 210.256 221.923 209.128 221.851 207.832C220.819 209.896 219.703 210.928 218.503 210.928C216.655 210.928 215.371 210.352 214.651 209.2C213.931 208.048 213.571 206.38 213.571 204.196C213.571 201.988 214.039 199.708 214.975 197.356C215.935 195.004 217.015 193.828 218.215 193.828C219.295 193.828 220.435 194.116 221.635 194.692ZM221.743 198.04C221.143 197.584 220.543 197.356 219.943 197.356C219.367 197.356 218.863 198.136 218.431 199.696C217.999 201.232 217.783 202.84 217.783 204.52C217.783 206.2 218.191 207.04 219.007 207.04C219.319 207.04 219.739 206.524 220.267 205.492C220.795 204.436 221.275 203.104 221.707 201.496L221.743 198.04ZM229.056 200.38C229.416 198.508 230.1 196.924 231.108 195.628C232.116 194.308 233.436 193.648 235.068 193.648C236.7 193.648 237.9 194.332 238.668 195.7C239.46 197.044 239.856 198.964 239.856 201.46C239.856 203.956 239.712 207.4 239.424 211.792L236.4 211.54L236.112 210.388C234.984 211.036 233.832 211.36 232.656 211.36C231.48 211.36 230.508 210.976 229.74 210.208C228.972 209.416 228.588 208.288 228.588 206.824C228.588 205.36 229.308 204.1 230.748 203.044C232.212 201.988 233.892 201.436 235.788 201.388V200.416C235.788 198.52 235.332 197.572 234.42 197.572C233.964 197.572 233.544 197.896 233.16 198.544C232.8 199.168 232.536 199.888 232.368 200.704L229.056 200.38ZM232.26 207.04C232.26 207.808 232.716 208.192 233.628 208.192C234.252 208.192 234.912 208.048 235.608 207.76L235.68 204.736C234.552 204.832 233.7 205.12 233.124 205.6C232.548 206.056 232.26 206.536 232.26 207.04ZM250.032 198.004C249.024 198.004 248.268 199.276 247.764 201.82C247.812 203.5 247.836 205.108 247.836 206.644C247.836 208.18 247.788 209.908 247.692 211.828L243.516 211.468C243.588 207.94 243.624 205.996 243.624 205.636C243.624 201.196 243.408 197.8 242.976 195.448L245.676 195.736C245.844 196.432 246.036 197.044 246.252 197.572C247.428 195.052 248.616 193.792 249.816 193.792C250.8 193.792 251.664 194.224 252.408 195.088L251.472 198.4C251.088 198.136 250.608 198.004 250.032 198.004ZM254.74 193.828L258.844 194.224V211.504L254.74 211.108V193.828ZM255.028 187.492L259.06 187.96L258.7 191.992L254.668 191.488L255.028 187.492ZM272.11 187.06C274.918 186.196 277.45 185.764 279.706 185.764C281.986 185.764 283.918 186.376 285.502 187.6C287.086 188.8 287.878 190.288 287.878 192.064C287.878 194.728 286.39 196.84 283.414 198.4C286.198 199.528 287.59 201.412 287.59 204.052C287.59 205.996 286.57 207.736 284.53 209.272C282.49 210.784 280.354 211.54 278.122 211.54C277.834 211.54 275.782 211.372 271.966 211.036C272.302 205.876 272.47 201.532 272.47 198.004C272.47 194.476 272.35 190.828 272.11 187.06ZM283.018 192.568C283.018 191.848 282.658 191.248 281.938 190.768C281.242 190.264 280.486 190.012 279.67 190.012C278.878 190.012 278.026 190.156 277.114 190.444C277.21 193.324 277.258 195.496 277.258 196.96C278.362 196.864 279.598 196.372 280.966 195.484C282.334 194.572 283.018 193.6 283.018 192.568ZM278.914 207.148C279.706 207.148 280.546 206.836 281.434 206.212C282.322 205.564 282.766 204.832 282.766 204.016C282.766 203.176 282.25 202.444 281.218 201.82C280.186 201.196 278.854 200.812 277.222 200.668C277.174 203.5 277.126 205.624 277.078 207.04C277.51 207.112 278.122 207.148 278.914 207.148ZM289.982 200.38C290.342 198.508 291.026 196.924 292.034 195.628C293.042 194.308 294.362 193.648 295.994 193.648C297.626 193.648 298.826 194.332 299.594 195.7C300.386 197.044 300.782 198.964 300.782 201.46C300.782 203.956 300.638 207.4 300.35 211.792L297.326 211.54L297.038 210.388C295.91 211.036 294.758 211.36 293.582 211.36C292.406 211.36 291.434 210.976 290.666 210.208C289.898 209.416 289.514 208.288 289.514 206.824C289.514 205.36 290.234 204.1 291.674 203.044C293.138 201.988 294.818 201.436 296.714 201.388V200.416C296.714 198.52 296.258 197.572 295.346 197.572C294.89 197.572 294.47 197.896 294.086 198.544C293.726 199.168 293.462 199.888 293.294 200.704L289.982 200.38ZM293.186 207.04C293.186 207.808 293.642 208.192 294.554 208.192C295.178 208.192 295.838 208.048 296.534 207.76L296.606 204.736C295.478 204.832 294.626 205.12 294.05 205.6C293.474 206.056 293.186 206.536 293.186 207.04ZM310.958 198.004C309.95 198.004 309.194 199.276 308.69 201.82C308.738 203.5 308.762 205.108 308.762 206.644C308.762 208.18 308.714 209.908 308.618 211.828L304.442 211.468C304.514 207.94 304.55 205.996 304.55 205.636C304.55 201.196 304.334 197.8 303.902 195.448L306.602 195.736C306.77 196.432 306.962 197.044 307.178 197.572C308.354 195.052 309.542 193.792 310.742 193.792C311.726 193.792 312.59 194.224 313.334 195.088L312.398 198.4C312.014 198.136 311.534 198.004 310.958 198.004ZM314.838 200.38C315.198 198.508 315.882 196.924 316.89 195.628C317.898 194.308 319.218 193.648 320.85 193.648C322.482 193.648 323.682 194.332 324.45 195.7C325.242 197.044 325.638 198.964 325.638 201.46C325.638 203.956 325.494 207.4 325.206 211.792L322.182 211.54L321.894 210.388C320.766 211.036 319.614 211.36 318.438 211.36C317.262 211.36 316.29 210.976 315.522 210.208C314.754 209.416 314.37 208.288 314.37 206.824C314.37 205.36 315.09 204.1 316.53 203.044C317.994 201.988 319.674 201.436 321.57 201.388V200.416C321.57 198.52 321.114 197.572 320.202 197.572C319.746 197.572 319.326 197.896 318.942 198.544C318.582 199.168 318.318 199.888 318.15 200.704L314.838 200.38ZM318.042 207.04C318.042 207.808 318.498 208.192 319.41 208.192C320.034 208.192 320.694 208.048 321.39 207.76L321.462 204.736C320.334 204.832 319.482 205.12 318.906 205.6C318.33 206.056 318.042 206.536 318.042 207.04ZM336.461 193.864C339.629 193.864 341.213 196.504 341.213 201.784C341.213 204.568 341.057 207.52 340.745 210.64L336.533 210.244C336.797 207.508 336.929 204.748 336.929 201.964C336.929 199.156 336.533 197.752 335.741 197.752C335.357 197.752 334.865 198.724 334.265 200.668C333.665 202.588 333.293 204.472 333.149 206.32C333.197 207.304 333.293 209.08 333.437 211.648L329.225 211.252C328.961 207.868 328.829 204.892 328.829 202.324C328.829 199.756 328.901 197.452 329.045 195.412L331.709 195.7C331.757 195.892 331.937 196.672 332.249 198.04C333.641 195.256 335.045 193.864 336.461 193.864ZM349.415 215.824C350.159 215.824 350.759 215.056 351.215 213.52C351.671 212.008 351.899 210.124 351.899 207.868C350.627 210.148 349.307 211.288 347.939 211.288C346.595 211.288 345.503 210.832 344.663 209.92C343.847 208.984 343.439 207.58 343.439 205.708C343.439 203.812 343.763 201.94 344.411 200.092C345.059 198.22 345.851 196.732 346.787 195.628C347.747 194.5 348.659 193.936 349.523 193.936C351.035 193.936 352.427 194.548 353.699 195.772L356.219 196.132C355.907 197.692 355.751 200.092 355.751 203.332C355.751 206.548 355.655 208.924 355.463 210.46C355.295 211.972 355.007 213.46 354.599 214.924C354.191 216.388 353.591 217.552 352.799 218.416C352.007 219.28 350.963 219.712 349.667 219.712C348.371 219.712 347.135 219.184 345.959 218.128C344.783 217.096 343.835 215.848 343.115 214.384L346.139 213.088C347.075 214.912 348.167 215.824 349.415 215.824ZM350.423 197.608C349.823 197.608 349.211 198.472 348.587 200.2C347.987 201.928 347.687 203.764 347.687 205.708C347.687 206.452 347.783 207.016 347.975 207.4C348.191 207.784 348.419 207.976 348.659 207.976C348.923 207.976 349.259 207.736 349.667 207.256C350.075 206.776 350.507 206.008 350.963 204.952C351.443 203.896 351.791 202.732 352.007 201.46L352.079 198.724C351.383 197.98 350.831 197.608 350.423 197.608ZM217.46 230.06C220.268 229.196 222.8 228.764 225.056 228.764C227.336 228.764 229.268 229.376 230.852 230.6C232.436 231.8 233.228 233.288 233.228 235.064C233.228 237.728 231.74 239.84 228.764 241.4C231.548 242.528 232.94 244.412 232.94 247.052C232.94 248.996 231.92 250.736 229.88 252.272C227.84 253.784 225.704 254.54 223.472 254.54C223.184 254.54 221.132 254.372 217.316 254.036C217.652 248.876 217.82 244.532 217.82 241.004C217.82 237.476 217.7 233.828 217.46 230.06ZM228.368 235.568C228.368 234.848 228.008 234.248 227.288 233.768C226.592 233.264 225.836 233.012 225.02 233.012C224.228 233.012 223.376 233.156 222.464 233.444C222.56 236.324 222.608 238.496 222.608 239.96C223.712 239.864 224.948 239.372 226.316 238.484C227.684 237.572 228.368 236.6 228.368 235.568ZM224.264 250.148C225.056 250.148 225.896 249.836 226.784 249.212C227.672 248.564 228.116 247.832 228.116 247.016C228.116 246.176 227.6 245.444 226.568 244.82C225.536 244.196 224.204 243.812 222.572 243.668C222.524 246.5 222.476 248.624 222.428 250.04C222.86 250.112 223.472 250.148 224.264 250.148ZM240.3 251.408C241.212 251.408 242.184 250.532 243.216 248.78L245.952 250.4C245.496 251.192 245.052 251.864 244.62 252.416C244.212 252.968 243.588 253.496 242.748 254C241.908 254.504 240.972 254.756 239.94 254.756C238.428 254.756 237.156 254.12 236.124 252.848C235.092 251.552 234.576 249.812 234.576 247.628C234.576 245.132 235.02 242.804 235.908 240.644C236.388 239.516 237.072 238.604 237.96 237.908C238.872 237.188 239.796 236.828 240.732 236.828C241.692 236.828 242.46 236.984 243.036 237.296C243.612 237.584 244.068 237.92 244.404 238.304C244.764 238.664 245.076 239.204 245.34 239.924C245.604 240.644 245.784 241.232 245.88 241.688C246 242.144 246.096 242.804 246.168 243.668C246.264 244.82 246.312 245.864 246.312 246.8C244.392 247.328 241.908 247.808 238.86 248.24C238.932 249.2 239.1 249.968 239.364 250.544C239.628 251.12 239.94 251.408 240.3 251.408ZM241.092 240.356C240.564 240.356 240.084 240.884 239.652 241.94C239.244 242.996 239.004 244.22 238.932 245.612C240.204 245.348 241.308 245.096 242.244 244.856C242.244 241.856 241.86 240.356 241.092 240.356ZM249.163 254.288C249.067 251.792 249.019 248.096 249.019 243.2C249.019 238.304 249.199 233.132 249.559 227.684L253.771 228.008C253.411 233.888 253.231 239.552 253.231 245C255.727 241.952 257.599 238.988 258.847 236.108L261.727 238.628C260.647 241.148 259.207 243.644 257.407 246.116C259.279 248.3 260.767 250.34 261.871 252.236L259.135 254.828C257.839 252.812 255.871 250.424 253.231 247.664C253.231 250.328 253.279 252.668 253.375 254.684L249.163 254.288ZM263.316 243.38C263.676 241.508 264.36 239.924 265.368 238.628C266.376 237.308 267.696 236.648 269.328 236.648C270.96 236.648 272.16 237.332 272.928 238.7C273.72 240.044 274.116 241.964 274.116 244.46C274.116 246.956 273.972 250.4 273.684 254.792L270.66 254.54L270.372 253.388C269.244 254.036 268.092 254.36 266.916 254.36C265.74 254.36 264.768 253.976 264 253.208C263.232 252.416 262.848 251.288 262.848 249.824C262.848 248.36 263.568 247.1 265.008 246.044C266.472 244.988 268.152 244.436 270.048 244.388V243.416C270.048 241.52 269.592 240.572 268.68 240.572C268.224 240.572 267.804 240.896 267.42 241.544C267.06 242.168 266.796 242.888 266.628 243.704L263.316 243.38ZM266.52 250.04C266.52 250.808 266.976 251.192 267.888 251.192C268.512 251.192 269.172 251.048 269.868 250.76L269.94 247.736C268.812 247.832 267.96 248.12 267.384 248.6C266.808 249.056 266.52 249.536 266.52 250.04ZM284.22 242.66C284.22 241.22 283.86 240.5 283.14 240.5C282.78 240.5 282.444 240.68 282.132 241.04C281.844 241.376 281.7 241.844 281.7 242.444C281.7 243.02 281.808 243.5 282.024 243.884C282.264 244.268 282.684 244.652 283.284 245.036C283.908 245.396 284.388 245.696 284.724 245.936C285.084 246.152 285.504 246.464 285.984 246.872C286.968 247.736 287.46 248.852 287.46 250.22C287.46 251.564 286.944 252.656 285.912 253.496C284.904 254.336 283.764 254.756 282.492 254.756C281.22 254.756 280.068 254.42 279.036 253.748C278.028 253.052 277.212 252.188 276.588 251.156L278.532 248.96C279.492 250.616 280.5 251.444 281.556 251.444C281.916 251.444 282.228 251.348 282.492 251.156C282.756 250.94 282.888 250.652 282.888 250.292C282.888 249.524 282.336 248.816 281.232 248.168C280.056 247.52 279.132 246.8 278.46 246.008C277.788 245.216 277.452 244.1 277.452 242.66C277.452 241.196 278.052 239.888 279.252 238.736C280.452 237.56 281.736 236.972 283.104 236.972C284.496 236.972 285.588 237.452 286.38 238.412C287.196 239.348 287.604 240.62 287.604 242.228C287.604 242.876 287.532 243.572 287.388 244.316L284.112 244.028C284.184 243.476 284.22 243.02 284.22 242.66Z" fill="white"/>
<defs>
<filter id="filter0_d_217_820" x="46" y="37" width="421" height="326" filterUnits="userSpaceOnUse" color-interpolation-filters="sRGB">
<feFlood flood-opacity="0" result="BackgroundImageFix"/>
<feColorMatrix in="SourceAlpha" type="matrix" values="0 0 0 0 0 0 0 0 0 0 0 0 0 0 0 0 0 0 127 0" result="hardAlpha"/>
<feOffset dy="4"/>
<feGaussianBlur stdDeviation="2"/>
<feComposite in2="hardAlpha" operator="out"/>
<feColorMatrix type="matrix" values="0 0 0 0 0 0 0 0 0 0 0 0 0 0 0 0 0 0 0.25 0"/>
<feBlend mode="normal" in2="BackgroundImageFix" result="effect1_dropShadow_217_820"/>
<feBlend mode="normal" in="SourceGraphic" in2="effect1_dropShadow_217_820" result="shape"/>
</filter>
<linearGradient id="paint0_linear_217_820" x1="256.5" y1="37" x2="256.5" y2="355" gradientUnits="userSpaceOnUse">
<stop stop-color="#FDFA74"/>
<stop offset="1" stop-color="#46EAAA"/>
</linearGradient>
</defs>
</svg>
