<svg width="465" height="444" viewBox="0 0 465 444" fill="none" xmlns="http://www.w3.org/2000/svg">
<path d="M389.839 13.2841L3 135.588L123.467 265.247L384.234 139.075L389.839 13.2841Z" stroke="#124E31" stroke-width="2" stroke-miterlimit="10"/>
<path d="M123.467 265.247L103.462 420.018L453.77 230.608L384.234 139.075L123.467 265.247Z" stroke="#124E31" stroke-width="2" stroke-miterlimit="10"/>
<path d="M460.539 79.901L40.2852 18.932L94.5362 197.542L397.802 197.031L460.539 79.901Z" stroke="#124E31" stroke-width="5" stroke-miterlimit="10"/>
<path d="M94.5361 197.542L4.99609 335.646L421.492 316.011L397.802 197.031L94.5361 197.542Z" stroke="#124E31" stroke-width="5" stroke-miterlimit="10"/>
<path d="M445.008 55.3611L20.3618 52.9181L98.7158 221.651L399.017 179.512L445.008 55.3611Z" fill="#FFE369"/>
<path d="M98.7158 221.651L29.0698 370.171L438.882 293.621L399.017 179.512L98.7158 221.651Z" fill="url(#paint0_linear_217_2463)"/>
<path d="M440.008 50.3611L15.3618 47.9181L93.7158 216.651L394.017 174.512L440.008 50.3611Z" fill="#FFE369"/>
<path d="M93.7158 216.651L24.0698 365.171L433.882 288.621L394.017 174.512L93.7158 216.651Z" fill="url(#paint1_linear_217_2463)"/>
<path opacity="0.43" d="M49.8169 347.897L103.579 318.125L124.727 400.198L49.8169 347.897Z" fill="url(#paint2_linear_217_2463)"/>
<path opacity="0.43" d="M87.4971 107.793L105.868 61.442L161.207 97.334L87.4971 107.793Z" fill="#124E31"/>
<path opacity="0.43" d="M259.893 12.936L287.098 72.879L303.27 4L259.893 12.936Z" fill="url(#paint3_linear_217_2463)"/>
<path opacity="0.43" d="M334.628 68.301L370.073 45.544L349.091 26.912L334.628 68.301Z" fill="#124E31"/>
<path opacity="0.43" d="M389.149 101.669L431.463 122.008L436.882 91.205L389.149 101.669Z" fill="url(#paint4_linear_217_2463)"/>
<path opacity="0.43" d="M21.5171 404.331L40.9411 443.706L78.1161 420.539L21.5171 404.331Z" fill="#124E31"/>
<path d="M46.8169 343.897L100.579 314.125L121.727 396.198L46.8169 343.897Z" fill="url(#paint5_linear_217_2463)"/>
<path d="M84.4971 103.793L102.868 57.442L158.207 93.334L84.4971 103.793Z" fill="#124E31"/>
<path d="M256.893 8.936L284.098 68.879L300.27 0L256.893 8.936Z" fill="url(#paint6_linear_217_2463)"/>
<path d="M331.628 64.301L367.073 41.544L346.091 22.912L331.628 64.301Z" fill="#124E31"/>
<path d="M386.149 97.669L428.463 118.008L433.882 87.205L386.149 97.669Z" fill="url(#paint7_linear_217_2463)"/>
<path d="M18.5171 400.331L37.9411 439.706L75.1161 416.539L18.5171 400.331Z" fill="#124E31"/>
<path d="M195.434 135.85C189.977 135.747 185.628 134.638 182.385 132.524C179.143 130.37 177.562 127.159 177.643 122.893C177.686 120.636 178.109 118.921 178.911 117.746C179.713 116.571 180.873 115.998 182.391 116.027C183.498 116.048 184.395 116.352 185.082 116.94C185.768 117.528 186.103 118.273 186.086 119.175C186.07 119.996 185.995 120.712 185.86 121.325C185.857 121.489 185.811 121.776 185.721 122.185C185.672 122.594 185.643 123.024 185.635 123.476C185.6 125.322 186.497 126.713 188.326 127.651C190.196 128.589 192.813 129.091 196.176 129.155C199.663 129.221 202.403 128.657 204.396 127.464C206.389 126.23 207.407 124.484 207.45 122.228C207.477 120.833 207.048 119.635 206.164 118.633C205.281 117.591 204.169 116.728 202.828 116.046C201.487 115.323 199.595 114.446 197.153 113.414C194.017 112.124 191.455 110.905 189.466 109.759C187.518 108.614 185.844 107.085 184.444 105.17C183.086 103.216 182.433 100.823 182.487 97.9923C182.543 95.0386 183.373 92.4279 184.975 90.1602C186.619 87.8933 188.93 86.152 191.907 84.9364C194.926 83.7216 198.446 83.1524 202.466 83.2288C205.461 83.2857 208.201 83.7892 210.686 84.7393C213.172 85.6483 215.137 87.0194 216.579 88.8525C218.063 90.6864 218.78 92.9161 218.73 95.5416C218.681 98.1261 218.254 100.067 217.45 101.365C216.645 102.663 215.484 103.298 213.966 103.269C212.9 103.249 212.003 102.903 211.277 102.233C210.592 101.563 210.258 100.777 210.276 99.8747C210.29 99.0953 210.366 98.3785 210.501 97.7245C210.648 96.4961 210.724 95.7178 210.73 95.3896C210.763 93.6666 209.947 92.3379 208.282 91.4034C206.617 90.4689 204.534 89.9779 202.031 89.9303C198.503 89.8633 195.783 90.4682 193.871 91.7451C192.001 92.9818 191.043 94.7693 190.999 97.1076C190.969 98.6665 191.416 100.009 192.338 101.134C193.302 102.261 194.495 103.207 195.916 103.972C197.338 104.738 199.332 105.658 201.897 106.733C204.99 108.064 207.471 109.26 209.338 110.322C211.206 111.383 212.779 112.808 214.059 114.597C215.379 116.387 216.015 118.574 215.965 121.159C215.873 126 213.956 129.698 210.214 132.253C206.514 134.768 201.587 135.967 195.434 135.85ZM254.062 122.745C254.595 122.755 255.001 123.009 255.278 123.506C255.597 124.005 255.748 124.685 255.732 125.546C255.701 127.187 255.287 128.452 254.49 129.339C252.685 131.48 250.744 133.228 248.666 134.584C246.629 135.941 244.319 136.595 241.734 136.545C239.56 136.504 237.811 135.691 236.486 134.107C234.119 135.58 231.664 136.313 229.119 136.306C228.436 144.213 227.1 150.795 225.112 156.051C223.124 161.348 220.304 163.962 216.653 163.893C214.438 163.851 212.812 163.02 211.776 161.4C210.739 159.779 210.248 157.554 210.302 154.723C210.378 150.703 211.391 146.023 213.339 140.684C215.286 135.386 218.249 129.554 222.228 123.186C222.342 117.197 222.38 113.032 222.342 110.692C222.324 109.502 222.813 108.567 223.811 107.888C224.809 107.21 226.046 106.884 227.523 106.912C228.385 106.929 228.997 107.125 229.359 107.501C229.763 107.837 229.976 108.518 229.997 109.545C229.978 110.57 229.984 111.33 230.015 111.823C231.359 110.207 232.674 109.062 233.959 108.389C235.245 107.675 236.605 107.331 238.041 107.358C240.339 107.402 242.188 108.361 243.588 110.234C245.03 112.108 245.723 114.542 245.666 117.537C245.624 119.711 245.236 121.818 244.499 123.856C243.763 125.893 242.763 127.742 241.501 129.4C242.357 129.663 243.073 129.8 243.647 129.81C245.001 129.836 246.303 129.368 247.552 128.407C248.802 127.446 250.412 125.835 252.384 123.574C252.887 123.009 253.446 122.733 254.062 122.745ZM229.539 130.404C231.022 130.104 232.391 129.33 233.646 128.081C234.943 126.793 235.978 125.212 236.753 123.339C237.528 121.425 237.935 119.422 237.975 117.33C237.998 116.099 237.77 115.171 237.289 114.546C236.809 113.881 236.159 113.54 235.339 113.524C233.862 113.496 232.048 115.021 229.896 118.099C229.821 119.904 229.75 122.549 229.684 126.036C229.648 127.923 229.6 129.379 229.539 130.404ZM217.26 157.872C218.367 157.893 219.336 155.49 220.167 150.663C220.996 145.878 221.582 139.897 221.924 132.722C220.082 136.791 218.612 140.682 217.516 144.396C216.419 148.109 215.847 151.238 215.798 153.781C215.774 155.094 215.919 156.102 216.233 156.806C216.507 157.509 216.849 157.864 217.26 157.872ZM278.273 123.205C278.806 123.215 279.212 123.469 279.489 123.966C279.808 124.465 279.959 125.145 279.943 126.006C279.912 127.647 279.498 128.912 278.701 129.799C277.148 131.617 274.962 133.278 272.143 134.784C269.365 136.291 266.396 137.014 263.237 136.954C258.93 136.872 255.609 135.64 253.274 133.256C250.939 130.872 249.81 127.65 249.887 123.589C249.941 120.758 250.586 118.144 251.821 115.746C253.058 113.307 254.736 111.39 256.855 109.994C259.016 108.598 261.429 107.926 264.096 107.977C266.475 108.022 268.369 108.776 269.778 110.239C271.187 111.661 271.869 113.583 271.823 116.003C271.769 118.834 270.697 121.255 268.607 123.267C266.559 125.239 263.103 126.774 258.239 127.872C259.229 129.778 261.16 130.759 264.031 130.813C265.877 130.848 267.982 130.252 270.344 129.025C272.749 127.758 274.832 126.094 276.595 124.035C277.098 123.47 277.657 123.193 278.273 123.205ZM262.935 113.987C261.417 113.958 260.108 114.816 259.008 116.56C257.949 118.304 257.396 120.428 257.348 122.93L257.346 123.053C259.777 122.525 261.701 121.7 263.118 120.577C264.534 119.455 265.257 118.135 265.286 116.617C265.301 115.838 265.087 115.218 264.644 114.758C264.243 114.258 263.674 114.001 262.935 113.987ZM286.472 137.396C282.452 137.319 279.335 136.131 277.121 133.832C274.95 131.493 273.899 128.457 273.97 124.723C274.033 121.4 274.745 118.5 276.106 116.023C277.466 113.545 279.205 111.649 281.323 110.335C283.441 109.021 285.648 108.386 287.946 108.43C290.202 108.473 291.933 109.183 293.138 110.56C294.385 111.897 294.988 113.611 294.948 115.704C294.916 117.427 294.498 118.876 293.696 120.051C292.935 121.226 291.939 121.802 290.708 121.779C289.929 121.764 289.297 121.567 288.811 121.189C288.367 120.811 288.151 120.294 288.164 119.638C288.169 119.35 288.216 119.023 288.306 118.655C288.395 118.288 288.461 118.022 288.505 117.859C288.722 117.247 288.836 116.675 288.846 116.142C288.856 115.608 288.72 115.195 288.438 114.903C288.198 114.611 287.831 114.46 287.339 114.451C286.395 114.433 285.505 114.847 284.668 115.693C283.832 116.498 283.154 117.614 282.635 119.04C282.115 120.467 281.839 122.041 281.806 123.764C281.716 128.523 283.742 130.942 287.886 131.021C289.568 131.052 291.383 130.533 293.333 129.462C295.324 128.351 297.284 126.685 299.214 124.464C299.717 123.899 300.276 123.623 300.892 123.634C301.425 123.645 301.831 123.899 302.109 124.396C302.427 124.895 302.579 125.575 302.562 126.436C302.533 127.995 302.119 129.26 301.321 130.229C299.347 132.572 296.994 134.374 294.262 135.635C291.571 136.856 288.974 137.443 286.472 137.396ZM306.063 104.711C304.34 104.679 303.055 104.264 302.209 103.469C301.363 102.632 300.953 101.495 300.981 100.059C301.008 98.6237 301.584 97.4445 302.71 96.522C303.877 95.5593 305.302 95.0939 306.984 95.1258C308.502 95.1547 309.725 95.5473 310.655 96.3036C311.585 97.06 312.036 98.1151 312.011 99.4689C311.98 101.11 311.421 102.412 310.336 103.377C309.251 104.3 307.827 104.745 306.063 104.711ZM304.943 137.747C302.276 137.696 300.346 136.715 299.151 134.805C297.997 132.895 297.45 130.381 297.509 127.264C297.544 125.418 297.814 123.063 298.32 120.2C298.868 117.297 299.535 114.601 300.321 112.112C300.715 110.807 301.224 109.913 301.849 109.433C302.474 108.952 303.463 108.725 304.817 108.751C306.909 108.79 307.942 109.508 307.915 110.902C307.896 111.928 307.461 114.3 306.61 118.018C305.54 122.512 304.99 125.559 304.959 127.159C304.936 128.39 305.082 129.336 305.398 129.999C305.714 130.662 306.261 131 307.041 131.015C307.779 131.029 308.712 130.534 309.839 129.529C310.966 128.525 312.474 126.932 314.362 124.752C314.865 124.187 315.424 123.911 316.04 123.922C316.573 123.932 316.979 124.186 317.256 124.684C317.575 125.183 317.726 125.863 317.71 126.724C317.679 128.365 317.265 129.629 316.468 130.517C312.313 135.404 308.471 137.814 304.943 137.747ZM320.086 138.034C317.543 137.986 315.53 137.025 314.047 135.15C312.564 133.275 311.851 130.84 311.908 127.845C311.97 124.563 312.788 121.48 314.362 118.596C315.936 115.672 317.991 113.351 320.526 111.634C323.104 109.878 325.808 109.026 328.639 109.08C329.542 109.097 330.133 109.293 330.413 109.668C330.735 110.002 330.99 110.623 331.178 111.529C332.043 111.381 332.947 111.316 333.89 111.334C335.9 111.373 336.892 112.11 336.865 113.545C336.848 114.407 336.502 116.452 335.825 119.682C334.791 124.381 334.257 127.654 334.222 129.5C334.21 130.116 334.345 130.611 334.625 130.985C334.946 131.361 335.353 131.553 335.845 131.563C336.624 131.577 337.577 131.103 338.704 130.14C339.831 129.135 341.359 127.522 343.289 125.302C343.793 124.737 344.352 124.46 344.967 124.472C345.501 124.482 345.906 124.736 346.184 125.234C346.503 125.732 346.654 126.412 346.638 127.274C346.606 128.915 346.193 130.179 345.396 131.067C343.674 133.127 341.856 134.857 339.942 136.257C338.027 137.657 336.188 138.34 334.424 138.307C333.07 138.281 331.828 137.806 330.696 136.882C329.607 135.917 328.79 134.63 328.246 133.019C326.047 136.424 323.327 138.096 320.086 138.034ZM322.42 131.861C323.322 131.879 324.194 131.362 325.035 130.311C325.875 129.26 326.497 127.856 326.9 126.099L329.392 114.819C327.668 114.828 326.056 115.454 324.555 116.697C323.095 117.901 321.916 119.52 321.015 121.555C320.115 123.589 319.643 125.755 319.599 128.053C319.575 129.325 319.803 130.273 320.284 130.897C320.805 131.523 321.517 131.844 322.42 131.861ZM359.377 129.794C359.836 129.392 360.291 129.195 360.742 129.204C361.235 129.213 361.619 129.508 361.895 130.088C362.213 130.627 362.365 131.287 362.35 132.066C362.317 133.789 361.676 135.152 360.426 136.154C358.259 137.878 355.822 138.714 353.114 138.662C349.217 138.588 346.397 136.913 344.653 133.638C342.91 130.322 342.089 126.038 342.189 120.787C342.284 115.782 343.028 110.092 344.421 103.717C345.856 97.3419 347.868 91.881 350.458 87.3339C353.088 82.7876 356.147 80.5475 359.634 80.6138C361.604 80.6512 363.124 81.6035 364.197 83.4706C365.311 85.2975 365.836 87.9134 365.771 91.3184C365.679 96.2002 364.217 101.836 361.387 108.225C358.598 114.615 354.826 120.904 350.071 127.093C350.327 128.78 350.816 130 351.541 130.753C352.265 131.505 353.263 131.894 354.535 131.918C355.232 131.931 356.016 131.741 356.885 131.347C357.795 130.954 358.626 130.436 359.377 129.794ZM358.165 86.6801C357.221 86.6622 356.122 88.3444 354.868 91.7268C353.614 95.1091 352.487 99.3147 351.489 104.343C350.49 109.372 349.906 114.204 349.736 118.838C352.74 114.093 355.149 109.338 356.963 104.571C358.778 99.7626 359.723 95.3689 359.799 91.3896C359.858 88.2717 359.314 86.7019 358.165 86.6801Z" fill="#124E31"/>
<path d="M256.893 132.285H395.574" stroke="#124E31" stroke-width="3" stroke-miterlimit="10"/>
<path d="M117.412 297.629C106.617 300.356 94.781 294.672 88.269 286.175C87.08 284.66 86.485 283.899 85.293 282.373C85.268 289.888 85.258 293.654 85.243 301.206C76.936 302.925 72.786 303.802 64.491 305.59C62.94 290.568 61.388 275.546 59.837 260.523C68.823 259.131 73.319 258.454 82.315 257.14C83.813 267.796 92.61 274.97 103.41 273.49C103.412 273.49 103.416 273.489 103.418 273.489C112.155 272.027 116.762 266.868 116.072 259.215C115.416 251.939 107.986 250.122 97.793 247.701C76.166 242.565 58.631 231.001 56.189 207.073C54.343 188.98 63.907 166.238 84.581 165.766C96.416 165.496 109.58 171.355 114.754 182.942C116.111 185.61 116.788 186.94 118.14 189.589C118.173 181.157 118.192 176.953 118.236 168.565C126.755 168.445 131.015 168.402 139.534 168.351C140.636 181.668 141.738 194.984 142.841 208.301C133.98 208.854 129.55 209.149 120.692 209.777C119.057 198.625 110.496 188.698 98.644 189.207C93.918 189.41 87.138 194.081 88.099 202.802C89.286 213.58 102.132 217.628 110.917 220.31C128.267 225.606 147.615 234.743 149.305 255.605C150.943 275.813 137.214 293.522 117.412 297.629Z" fill="#124E31"/>
<path d="M84.8439 168.521C96.0479 168.373 108.377 173.458 113.241 184.334C115.957 189.677 117.309 192.329 120.003 197.596C120.028 191.391 120.042 188.295 120.074 182.114C120.096 177.732 120.108 175.544 120.133 171.173C127.22 171.052 130.764 171.004 137.851 170.931C138.82 182.571 139.788 194.211 140.757 205.85C133.282 206.294 129.545 206.53 122.072 207.027C119.654 195.68 110.572 186.074 98.3929 186.493C91.8129 186.791 85.2899 193.184 86.2249 202.934C87.5319 215.224 100.391 220.022 110.605 222.921C127.033 227.863 146.19 236.011 147.467 255.845C148.721 264.618 145.413 276.339 139.115 282.751C133.67 288.795 125.686 293.294 117.169 294.948C106.387 297.104 96.0379 292.482 89.4269 284.049C87.0499 281.018 85.8579 279.492 83.4679 276.419C83.4529 281.096 83.4469 283.439 83.4369 288.13C83.4279 292.361 83.4239 294.48 83.4169 298.723C76.4469 300.143 72.9649 300.865 66.0029 302.332C64.6579 289.258 63.3139 276.183 61.9689 263.109C69.5909 261.905 73.4029 261.316 81.0319 260.169C83.3279 270.907 92.6259 277.734 103.584 276.226C103.616 276.223 103.632 276.221 103.665 276.218C103.697 276.213 103.713 276.21 103.745 276.204C117.711 273.844 118.304 263.369 117.908 258.955C117.072 249.633 109.097 247.751 98.0049 244.996C90.1409 243.043 80.3359 240.572 72.5189 234.784C63.5709 228.23 58.9639 217.775 58.0599 206.916C56.8889 196.963 58.9199 186.291 65.4029 178.438C70.5049 172.348 77.7909 168.702 84.8439 168.521ZM84.3179 163.012C61.9169 163.711 52.0539 187.792 54.3169 207.234C56.4929 227.115 67.2429 240.424 85.7979 247.128C93.9299 250.066 110.892 249.99 114.235 259.478C114.95 267.37 108.114 269.97 103.236 270.757C92.4829 272.128 84.8439 264.654 83.7739 254.101C73.3399 255.578 68.1249 256.343 57.7029 257.926C59.4639 274.905 61.2239 291.884 62.9849 308.863C72.6099 306.744 77.4259 305.707 87.0669 303.68C87.0819 297.52 87.0909 294.446 87.1129 288.31C94.3429 297.657 105.842 302.782 117.655 300.311C138.85 295.932 153.185 277.054 151.144 255.365C149.854 236.734 135.941 227.095 120.028 220.798C110.081 216.861 92.9229 214.972 89.9739 202.67C89.3329 195.926 94.7379 192.138 98.8969 191.919C110.581 191.45 118.48 201.568 119.156 212.55C129.46 211.775 134.613 211.413 144.922 210.739C143.689 195.754 142.455 180.77 141.222 165.785C131.269 165.803 126.292 165.835 116.338 165.946C116.308 172.178 116.295 175.3 116.271 181.557C110.205 169.447 97.6619 162.672 84.3179 163.012Z" fill="#124E31"/>
<path d="M215.551 277.686C215.111 271.031 214.891 267.703 214.451 261.048C220.05 260.338 222.851 259.991 228.454 259.312C226.403 253.386 225.373 250.402 223.304 244.395C212.807 245.409 202.315 246.494 191.833 247.65C190.622 254.317 190.021 257.672 188.83 264.425C193.473 263.79 195.796 263.477 200.441 262.863C200.915 269.667 201.152 273.069 201.626 279.874C188.12 282.032 174.631 284.298 161.161 286.669C160.583 279.433 160.294 275.815 159.716 268.578C163.304 268.045 165.099 267.782 168.689 267.262C173.185 239.928 177.948 212.647 183.016 185.413C180.367 185.454 179.043 185.476 176.394 185.523C175.885 178.663 175.63 175.233 175.121 168.373C192.535 168.538 209.941 168.837 227.35 169.27C237.33 198.2 247.409 227.095 257.621 255.945C261.335 255.537 263.192 255.337 266.908 254.943C267.227 261.04 267.386 264.089 267.705 270.187C250.298 272.549 232.918 275.048 215.551 277.686ZM194.737 231.949C204.191 231.155 208.919 230.779 218.379 230.071C213.361 215.318 208.375 200.555 203.409 185.785C200.396 201.149 197.522 216.542 194.737 231.949Z" fill="#124E31"/>
<path d="M226.128 171.486C235.788 199.496 245.539 227.472 255.413 255.407C255.816 256.546 256.018 257.114 256.421 258.25C257.474 258.13 258.001 258.07 259.055 257.951C261.505 257.674 262.73 257.537 265.18 257.266C265.413 261.68 265.53 263.888 265.763 268.302C249.561 270.403 233.382 272.687 217.224 275.096C216.91 270.307 216.753 267.913 216.438 263.124C220.28 262.625 222.202 262.379 226.045 261.895C228.085 261.638 229.105 261.51 231.146 261.257C230.35 258.96 229.951 257.808 229.152 255.499C227.707 251.323 226.982 249.225 225.528 245.009C225.112 243.803 224.904 243.199 224.487 241.99C223.424 242.089 222.893 242.139 221.83 242.239C212.211 243.138 202.595 244.096 192.988 245.113C191.926 245.225 191.396 245.281 190.334 245.394C190.09 246.739 189.969 247.412 189.726 248.76C188.877 253.474 188.455 255.842 187.615 260.599C187.151 263.23 186.92 264.548 186.459 267.192C188.495 266.904 189.514 266.76 191.55 266.476C194.439 266.073 195.884 265.873 198.773 265.477C199.118 270.401 199.291 272.863 199.637 277.788C187.337 279.715 175.05 281.731 162.778 283.835C162.364 278.627 162.158 276.023 161.744 270.815C164.071 270.462 165.235 270.287 167.563 269.94C168.617 269.783 169.143 269.705 170.197 269.548C170.426 268.143 170.541 267.442 170.771 266.041C175.025 240.425 179.509 214.858 184.256 189.329C184.735 186.779 184.976 185.507 185.458 182.97C183.362 182.993 182.314 183.005 180.219 183.032C179.37 183.043 178.946 183.048 178.098 183.06C177.737 178.161 177.556 175.712 177.194 170.813C193.507 170.898 209.82 171.103 226.128 171.486ZM192.35 234.555C194.394 234.374 195.416 234.284 197.46 234.107C204.858 233.465 208.558 233.158 215.959 232.569C218.014 232.406 219.041 232.325 221.097 232.165C220.296 229.812 219.894 228.632 219.09 226.266C215.177 214.755 211.28 203.239 207.398 191.717C205.602 186.386 204.701 183.706 202.891 178.318C201.83 183.707 201.303 186.416 200.255 191.865C197.932 203.952 195.68 216.052 193.496 228.164C193.036 230.714 192.807 231.992 192.35 234.555ZM228.571 167.064C210.062 166.531 191.556 166.15 173.041 165.919C173.701 174.751 174.031 179.167 174.691 187.999C177.045 187.947 178.222 187.922 180.575 187.875C175.857 213.531 171.401 239.223 167.176 264.964C163.378 265.502 161.48 265.774 157.683 266.326C158.428 275.601 158.801 280.239 159.546 289.514C174.22 286.897 188.906 284.375 203.612 281.944C203.012 273.271 202.712 268.934 202.111 260.261C197.748 260.818 195.566 261.102 191.205 261.678C192.05 256.944 192.474 254.588 193.329 249.897C202.92 248.809 212.519 247.78 222.123 246.811C223.582 251.047 224.309 253.155 225.759 257.351C220.439 257.981 217.78 258.303 212.463 258.96C213.031 267.493 213.315 271.759 213.883 280.292C232.448 277.389 251.03 274.646 269.642 272.059C269.239 264.289 269.038 260.404 268.636 252.635C264.709 253.034 262.746 253.237 258.821 253.651C248.616 224.83 238.544 195.965 228.571 167.064ZM197.128 229.364C199.325 217.314 201.591 205.276 203.928 193.252C207.823 204.827 211.732 216.397 215.658 227.962C208.245 228.497 204.539 228.777 197.128 229.364Z" fill="#124E31"/>
<path d="M276.933 268.972C276.628 262.856 276.476 259.799 276.172 253.683C279.256 253.369 280.798 253.214 283.884 252.909C282.823 230.656 281.762 208.402 280.701 186.149C277.542 186.083 275.962 186.053 272.802 185.996C272.5 179.939 272.35 176.91 272.048 170.853C285.995 171.494 299.934 172.215 313.873 173.017C314.089 178.637 314.197 181.446 314.413 187.066C311.369 186.964 309.846 186.915 306.802 186.821C307.663 208.052 308.524 229.283 309.385 250.514C318.102 249.739 322.463 249.37 331.187 248.669C330.957 241.962 330.842 238.608 330.612 231.9C338.626 231.523 342.634 231.35 350.651 231.034C350.929 240.821 351.207 250.609 351.484 260.396C326.594 262.953 301.753 265.81 276.933 268.972Z" fill="#124E31"/>
<path d="M312.055 174.848C312.214 178.933 312.294 180.975 312.453 185.06C310.915 185.004 310.146 184.976 308.608 184.922C307.1 184.869 306.345 184.843 304.837 184.793C304.902 186.37 304.934 187.158 304.999 188.735C305.82 208.726 306.641 228.717 307.463 248.708C307.528 250.285 307.56 251.073 307.625 252.65C309.097 252.512 309.834 252.444 311.306 252.309C318.545 251.643 322.166 251.323 329.41 250.708C330.884 250.583 331.62 250.521 333.094 250.398C333.043 248.897 333.018 248.147 332.967 246.645C332.792 241.463 332.705 238.872 332.53 233.69C339.056 233.363 342.32 233.21 348.849 232.924C349.148 243.26 349.298 248.429 349.597 258.765C325.917 261.121 302.28 263.75 278.661 266.654C278.443 262.223 278.333 260.007 278.115 255.576C279.726 255.407 280.532 255.323 282.144 255.156C283.615 255.004 284.35 254.928 285.821 254.778C285.744 253.137 285.705 252.316 285.627 250.675C284.645 229.863 283.664 209.051 282.682 188.24C282.605 186.599 282.566 185.778 282.488 184.136C280.979 184.098 280.225 184.08 278.716 184.044C277.063 184.005 276.236 183.986 274.583 183.949C274.367 179.576 274.26 177.389 274.044 173.016C286.719 173.537 299.389 174.147 312.055 174.848ZM315.692 171.201C300.481 170.264 285.269 169.423 270.047 168.677C270.437 176.429 270.632 180.305 271.022 188.057C274.179 188.1 275.758 188.123 278.915 188.175C279.924 209.125 280.934 230.075 281.943 251.025C278.856 251.321 277.313 251.471 274.226 251.776C274.619 259.587 274.815 263.492 275.208 271.303C301.228 267.873 327.27 264.778 353.369 262.014C353.064 251.062 352.759 240.111 352.455 229.159C342.947 229.491 338.194 229.678 328.69 230.097C328.924 236.829 329.042 240.195 329.276 246.927C322.022 247.488 318.396 247.781 311.147 248.393C310.352 228.541 309.557 208.688 308.763 188.836C311.805 188.921 313.327 188.965 316.369 189.059C316.099 181.917 315.963 178.345 315.692 171.201Z" fill="#124E31"/>
<path d="M362.148 259.349C362.018 254.165 361.953 251.573 361.822 246.389C365.366 246.146 367.138 246.028 370.683 245.798C370.263 227.028 369.842 208.259 369.422 189.489C365.805 189.292 363.997 189.197 360.38 189.012C360.251 183.877 360.187 181.31 360.057 176.176C387.789 178.376 415.474 180.947 443.136 183.891C443.122 191.81 443.115 195.769 443.101 203.688C434.712 203.186 430.518 202.952 422.127 202.518C422.106 198.664 422.095 196.737 422.074 192.883C411.39 192.087 406.047 191.717 395.358 191.029C395.468 198.696 395.522 202.53 395.632 210.197C406.462 210.433 411.878 210.579 422.708 210.927C422.732 215.445 422.744 217.704 422.768 222.223C411.981 222.167 406.588 222.167 395.803 222.223C395.929 231.041 395.992 235.451 396.118 244.269C406.606 243.69 411.852 243.428 422.349 242.955C422.327 238.928 422.316 236.914 422.293 232.887C430.593 232.716 434.744 232.646 443.048 232.541C443.034 240.665 443.026 244.728 443.012 252.852C416.024 254.663 389.081 256.827 362.148 259.349Z" fill="#124E31"/>
<path d="M441.247 185.159C441.239 191.936 441.236 195.324 441.228 202.101C434.336 201.669 430.889 201.464 423.996 201.077C423.983 198.47 423.977 197.167 423.964 194.56C423.958 193.33 423.955 192.715 423.949 191.486C422.443 191.367 421.69 191.309 420.183 191.192C410.999 190.481 406.406 190.146 397.219 189.516C395.712 189.413 394.959 189.361 393.452 189.26C393.472 190.579 393.481 191.238 393.501 192.557C393.596 198.938 393.644 202.128 393.739 208.508C393.759 209.827 393.768 210.486 393.788 211.805C395.283 211.831 396.03 211.845 397.525 211.873C406.854 212.049 411.519 212.158 420.848 212.417C420.868 215.716 420.878 217.366 420.897 220.665C411.595 220.589 406.944 220.572 397.644 220.579C396.154 220.58 395.408 220.581 393.918 220.584C393.938 221.903 393.947 222.562 393.967 223.881C394.079 231.417 394.135 235.186 394.248 242.722C394.268 244.041 394.278 244.7 394.297 246.019C395.774 245.931 396.512 245.887 397.99 245.801C406.996 245.277 411.5 245.034 420.512 244.588C421.99 244.515 422.729 244.479 424.207 244.408C424.201 243.178 424.198 242.563 424.192 241.334C424.178 238.555 424.172 237.165 424.158 234.385C430.971 234.224 434.377 234.154 441.192 234.038C441.184 241.021 441.18 244.513 441.173 251.497C415.399 253.145 389.665 255.115 363.94 257.411C363.848 253.657 363.802 251.78 363.71 248.026C365.776 247.878 366.81 247.805 368.877 247.662C370.353 247.559 371.091 247.509 372.567 247.408C372.537 246.024 372.522 245.333 372.491 243.949C372.108 226.407 371.725 208.864 371.343 191.322C371.313 189.938 371.298 189.247 371.267 187.863C369.76 187.774 369.006 187.731 367.498 187.644C365.387 187.523 364.331 187.464 362.219 187.347C362.128 183.642 362.082 181.79 361.991 178.085C388.446 180.111 414.853 182.469 441.247 185.159ZM445.029 182.636C416.094 179.435 387.134 176.641 358.12 174.253C358.289 180.828 358.373 184.116 358.542 190.692C362.157 190.861 363.964 190.948 367.579 191.13C367.985 208.812 368.391 226.493 368.797 244.175C365.25 244.395 363.477 244.508 359.931 244.74C360.101 251.365 360.186 254.678 360.357 261.303C388.494 258.536 416.651 256.167 444.854 254.194C444.877 244.94 444.888 240.313 444.911 231.059C435.117 231.14 430.221 231.203 420.432 231.376C420.457 235.421 420.469 237.444 420.494 241.489C411.472 241.868 406.963 242.077 397.947 242.534C397.844 235.06 397.793 231.324 397.691 223.85C408.469 223.762 413.859 223.746 424.641 223.77C424.614 218.044 424.601 215.181 424.574 209.454C413.738 209.058 408.319 208.888 397.483 208.605C397.396 202.278 397.353 199.114 397.266 192.787C406.443 193.351 411.031 193.652 420.205 194.295C420.229 198.166 420.241 200.102 420.265 203.973C430.15 204.442 435.093 204.7 444.976 205.262C444.996 196.21 445.007 191.685 445.029 182.636Z" fill="#124E31"/>
<path d="M188.321 310.43L205.291 342.208C205.291 342.208 189.471 394.234 191.154 394.493C192.837 394.752 379.385 366.865 379.385 366.865L360.177 267.193L188.321 310.43Z" stroke="url(#paint8_linear_217_2463)" stroke-width="4" stroke-miterlimit="10"/>
<path d="M195.589 294.791L208.409 329.996C208.409 329.996 186.412 377.671 188.04 378.311C189.668 378.951 377.006 394.075 377.006 394.075L370.332 291.426L195.589 294.791Z" fill="#99A6B5"/>
<path d="M192.357 288.791L205.177 323.996C205.177 323.996 183.18 371.671 184.808 372.311C186.436 372.951 373.774 388.075 373.774 388.075L367.1 285.426L192.357 288.791Z" fill="#124E31"/>
<path d="M250.883 359.611C252.227 359.637 253.242 360.104 253.929 361.013C254.616 361.923 254.946 363.049 254.92 364.393C254.889 366.056 254.316 367.55 253.203 368.873C252.154 370.133 250.734 370.746 248.943 370.712C245.871 370.653 241.301 370.342 235.23 369.778C234.016 369.69 231.779 369.52 228.519 369.265C225.259 369.011 222.702 368.866 220.846 368.831C220.014 368.815 218.793 369.08 217.182 369.625C216.861 369.683 216.218 369.83 215.254 370.068C214.353 370.307 213.583 370.42 212.943 370.408C211.919 370.388 211.064 369.924 210.377 369.015C209.755 368.043 209.462 366.629 209.498 364.773C209.537 362.726 210.047 361.167 211.027 360.098C212.009 358.964 213.532 357.969 215.597 357.112C219.985 355.276 224.126 352.923 228.022 350.053C231.983 347.12 235.148 343.948 237.517 340.536C239.951 337.126 241.198 333.854 241.257 330.718C241.305 328.223 240.764 326.388 239.634 325.214C238.57 323.978 236.822 323.336 234.39 323.29C231.575 323.236 229.289 323.961 227.532 325.463C225.839 326.967 224.966 329.095 224.913 331.846C224.841 335.622 222.917 337.473 219.142 337.401C217.35 337.367 215.953 336.828 214.948 335.785C214.008 334.742 213.556 333.262 213.593 331.342C213.654 328.143 214.542 325.215 216.257 322.559C217.972 319.904 220.509 317.808 223.866 316.272C227.226 314.672 231.305 313.917 236.104 314.009C241.863 314.119 246.346 315.645 249.555 318.587C252.763 321.529 254.318 325.559 254.22 330.678C254.127 335.541 251.887 340.587 247.498 345.816C243.173 351.046 236.973 355.633 228.896 359.575L250.883 359.611ZM283.261 371.463C276.99 371.343 272.166 369.203 268.789 365.042C265.476 360.882 263.892 354.995 264.038 347.38C264.161 340.917 265.262 335.242 267.339 330.352C269.482 325.401 272.372 321.583 276.008 318.9C279.707 316.218 283.957 314.923 288.756 315.015C295.027 315.135 299.819 317.275 303.132 321.435C306.509 325.596 308.125 331.484 307.979 339.098C307.856 345.561 306.722 351.268 304.58 356.22C302.502 361.109 299.613 364.895 295.913 367.576C292.277 370.259 288.06 371.555 283.261 371.463ZM284.426 360.732C287.881 360.798 290.637 358.93 292.694 355.129C294.751 351.327 295.843 346.131 295.969 339.541C296.053 335.126 295.381 331.752 293.954 329.421C292.527 327.025 290.406 325.8 287.591 325.746C284.135 325.68 281.379 327.58 279.321 331.445C277.264 335.247 276.172 340.443 276.046 347.033C275.962 351.449 276.602 354.821 277.965 357.152C279.393 359.483 281.547 360.677 284.426 360.732Z" fill="#FBFDF3"/>
<path d="M341.981 337.176C341.905 337.796 341.656 338.382 341.233 338.933L323.502 362.156C322.885 362.957 322.144 363.305 321.281 363.2C320.714 363.132 320.242 362.855 319.862 362.371C319.483 361.887 319.335 361.307 319.417 360.633C319.492 360.012 319.792 359.351 320.315 358.648L331.995 343.313C330.499 343.678 329.033 343.801 327.597 343.681C326.884 345.265 325.86 346.482 324.524 347.332C323.219 348.159 321.825 348.483 320.341 348.302C318.992 348.138 317.871 347.673 316.979 346.908C316.09 346.115 315.468 345.15 315.113 344.012C314.759 342.873 314.657 341.684 314.808 340.443C315.018 338.716 315.527 337.231 316.335 335.988C317.174 334.721 318.205 333.779 319.43 333.161C320.655 332.543 321.969 332.32 323.372 332.49C325.099 332.7 326.415 333.476 327.319 334.818C328.227 336.133 328.657 337.664 328.609 339.41C330.43 339.522 332.143 339.279 333.749 338.68C335.385 338.058 336.67 337.173 337.603 336.028C338.476 334.929 339.357 334.434 340.248 334.542C340.814 334.611 341.259 334.898 341.58 335.402C341.929 335.91 342.063 336.501 341.981 337.176ZM321.188 344.709C321.755 344.778 322.297 344.598 322.815 344.168C323.333 343.738 323.743 343.062 324.047 342.141C323.519 341.529 323.141 340.812 322.912 339.991C322.687 339.142 322.622 338.326 322.717 337.544C322.769 337.112 322.865 336.659 323.005 336.183C322.955 336.149 322.849 336.123 322.687 336.103C321.877 336.005 321.152 336.341 320.511 337.111C319.9 337.859 319.496 339.041 319.299 340.66C319.148 341.901 319.249 342.872 319.602 343.572C319.985 344.248 320.514 344.627 321.188 344.709ZM341.35 349.46C342.753 349.631 343.899 350.112 344.788 350.905C345.68 351.671 346.304 352.622 346.658 353.761C347.013 354.899 347.114 356.088 346.963 357.329C346.757 359.029 346.234 360.512 345.396 361.779C344.584 363.05 343.553 363.992 342.301 364.606C341.076 365.224 339.762 365.447 338.359 365.277C336.956 365.106 335.808 364.638 334.916 363.873C334.053 363.083 333.445 362.12 333.091 360.981C332.736 359.843 332.634 358.654 332.785 357.413C332.995 355.686 333.506 354.187 334.318 352.917C335.129 351.647 336.146 350.717 337.367 350.126C338.592 349.508 339.92 349.286 341.35 349.46ZM339.166 361.679C339.921 361.771 340.606 361.43 341.22 360.656C341.862 359.885 342.279 358.704 342.473 357.112C342.623 355.871 342.507 354.912 342.124 354.236C341.771 353.536 341.284 353.148 340.664 353.073C339.855 352.974 339.129 353.311 338.488 354.081C337.877 354.828 337.473 356.011 337.276 357.63C337.119 358.925 337.218 359.909 337.574 360.582C337.961 361.231 338.491 361.597 339.166 361.679Z" fill="#FBFDF3"/>
<defs>
<linearGradient id="paint0_linear_217_2463" x1="233.976" y1="179.512" x2="233.976" y2="370.171" gradientUnits="userSpaceOnUse">
<stop stop-color="#FDFA74"/>
<stop offset="1" stop-color="#46EAAA"/>
</linearGradient>
<linearGradient id="paint1_linear_217_2463" x1="228.976" y1="174.512" x2="228.976" y2="365.171" gradientUnits="userSpaceOnUse">
<stop stop-color="#FDFA74"/>
<stop offset="1" stop-color="#46EAAA"/>
</linearGradient>
<linearGradient id="paint2_linear_217_2463" x1="87.2719" y1="318.125" x2="87.2719" y2="400.198" gradientUnits="userSpaceOnUse">
<stop stop-color="#BDF14D"/>
<stop offset="1" stop-color="#E2F14D"/>
</linearGradient>
<linearGradient id="paint3_linear_217_2463" x1="281.582" y1="4" x2="281.582" y2="72.879" gradientUnits="userSpaceOnUse">
<stop stop-color="#BDF14D"/>
<stop offset="1" stop-color="#E2F14D"/>
</linearGradient>
<linearGradient id="paint4_linear_217_2463" x1="413.015" y1="91.205" x2="413.015" y2="122.008" gradientUnits="userSpaceOnUse">
<stop stop-color="#BDF14D"/>
<stop offset="1" stop-color="#E2F14D"/>
</linearGradient>
<linearGradient id="paint5_linear_217_2463" x1="84.2719" y1="314.125" x2="84.2719" y2="396.198" gradientUnits="userSpaceOnUse">
<stop stop-color="#BDF14D"/>
<stop offset="1" stop-color="#E2F14D"/>
</linearGradient>
<linearGradient id="paint6_linear_217_2463" x1="278.582" y1="0" x2="278.582" y2="68.879" gradientUnits="userSpaceOnUse">
<stop stop-color="#BDF14D"/>
<stop offset="1" stop-color="#E2F14D"/>
</linearGradient>
<linearGradient id="paint7_linear_217_2463" x1="410.015" y1="87.205" x2="410.015" y2="118.008" gradientUnits="userSpaceOnUse">
<stop stop-color="#BDF14D"/>
<stop offset="1" stop-color="#E2F14D"/>
</linearGradient>
<linearGradient id="paint8_linear_217_2463" x1="283.853" y1="267.193" x2="283.853" y2="394.495" gradientUnits="userSpaceOnUse">
<stop stop-color="#BDF14D"/>
<stop offset="1" stop-color="#E2F14D"/>
</linearGradient>
</defs>
</svg>
